<svg width="84" height="85" viewBox="0 0 84 85" fill="none" xmlns="http://www.w3.org/2000/svg">
<path d="M15.0407 22.19C15.1787 22.706 16.3777 23.842 16.7937 24.831C17.2587 25.937 18.7307 29.933 18.7187 30.862C18.7087 31.658 17.8377 31.87 17.6447 32.54C15.0357 41.59 16.5937 47.978 22.2257 55.388C23.0727 56.503 28.0247 61.261 28.0277 61.735C28.0397 64.527 23.6497 60.231 22.8547 59.384C18.9707 55.246 14.2497 46.707 14.4507 40.963C14.5557 37.967 17.0237 33.497 16.9597 31.605C16.9467 31.218 14.6127 24.622 14.3947 24.303C13.1907 22.537 6.81072 23.641 7.09172 24.906C7.27372 25.728 10.4257 27.181 10.4417 30.347C10.4647 35.033 5.55969 40.754 6.29069 46.635C6.84069 51.06 11.6347 52.703 12.7467 56.081C13.5297 58.462 13.0537 65.352 13.4597 66.042C14.6377 68.041 18.2757 66.464 20.2537 66.545C24.0487 66.701 27.2207 69.098 29.6997 71.77C33.0607 75.394 35.8037 81.473 41.8247 80.356C38.0287 76.641 42.9597 70.606 44.8517 76.29C45.5977 78.531 43.7747 79.559 46.0137 80.568C50.5777 82.624 59.5587 80.681 64.9997 81.249C67.0977 81.468 70.7407 82.282 71.9557 84.123C69.1947 83.699 66.2117 82.475 63.3767 82.453C58.5617 82.417 53.4957 84.398 48.4117 83.608C46.9817 83.386 44.3547 81.738 43.6387 81.695C42.6747 81.637 41.6577 83.259 38.8727 82.689C29.0767 80.684 28.0217 64.582 15.8787 68.229C17.7657 70.63 17.4297 72.339 20.7417 72.774C21.6497 72.893 24.0377 72.367 23.8367 73.461C23.5057 75.261 20.8697 76.428 19.2337 75.538C17.8647 73.563 15.0847 71.886 13.7897 70.106C13.1567 69.236 12.5777 67.214 12.4327 67.069C12.2507 66.888 10.5987 66.533 9.87968 66.063C5.95368 63.497 8.2907 58.096 7.3137 54.402C6.7147 52.138 3.16071 49.551 1.90971 47.252C-0.0512915 43.647 -0.750297 38.085 1.0037 34.308C2.7137 30.627 6.6537 30.819 5.7357 25.846C5.4037 24.048 3.7467 23.814 3.7107 22.046C5.5717 19.857 7.93866 20.276 10.1147 19.566C13.1877 18.564 16.0717 16.317 20.0427 15.686C28.1207 14.402 26.4547 21.8709 28.8137 27.0439C28.9827 27.4149 28.9707 28.312 29.6837 27.631C30.2167 27.122 31.0727 17.689 31.5547 15.897C32.2497 13.314 34.0447 10.804 35.7517 8.79496C36.6737 7.70996 43.6167 0.270963 44.1907 0.0759627C46.1197 -0.578037 44.7727 3.17098 44.3517 4.42298C43.2257 7.77498 40.1897 11.961 39.3237 14.882C39.0927 15.662 39.4487 15.436 39.9337 15.499C41.7307 15.73 43.9347 14.708 44.8587 16.866C45.8327 19.139 43.5997 20.573 43.0827 22.61C48.3677 20.873 53.9057 19.496 59.0937 17.493C60.7407 16.857 70.0107 11.882 70.6977 12.568C70.6017 19.297 69.8737 25.947 64.0037 30.141C65.2097 30.2 66.3187 30.527 67.5397 30.582C68.7737 30.638 72.6127 30.082 72.9587 30.166C73.3167 30.253 73.6077 30.672 73.5677 31.117C73.4877 32.005 70.5387 36.838 69.7907 37.815C66.9737 41.493 63.4437 43.461 58.9837 44.58L70.0567 49.784C73.5987 49.026 78.4627 45.6559 81.8937 45.2939C82.5547 45.2239 83.0547 45.535 83.6707 45.633C84.5367 46.881 79.2437 50.483 78.1937 51.239C77.0637 52.053 74.6417 52.934 73.8937 53.551C73.4657 53.904 73.8927 54.447 73.1177 54.971C67.6037 58.701 60.8937 56.766 55.5207 57.859C53.4877 58.273 52.6497 60.079 51.2377 61.109C49.2927 62.528 41.5487 64.993 39.0527 65.244C34.9607 65.656 29.5717 64.491 28.0187 60.274C33.7707 66.584 41.9627 62.378 48.5137 59.64C49.7477 59.124 50.9457 57.991 52.1907 57.459C58.3597 54.822 65.9187 57.293 71.9517 53.786C70.9277 53.3 66.7967 53.503 66.5487 52.5C66.4647 52.163 67.0887 51.294 66.9367 51.073C66.5457 50.505 55.4647 47.625 54.9237 44.779C52.6477 45.204 49.1947 43.758 47.1017 44.344C46.6477 44.471 46.8427 45.89 46.2087 46.047C45.9007 46.124 42.4027 44.0569 42.2447 43.7379C41.4927 42.2139 45.0807 43.911 45.3057 43.873C45.8807 43.774 46.4447 42.867 47.8807 42.688C50.4977 42.361 52.9807 43.17 55.4307 43.15C63.1187 43.087 68.6877 38.785 71.5337 31.821C68.7827 32.398 66.2377 32.23 63.4887 31.706C54.9817 30.083 61.4647 28.97 64.1497 26.734C67.6107 23.852 68.9237 18.124 69.4417 13.826C66.3947 14.809 63.8387 16.769 60.9377 18.081C56.1407 20.251 49.8227 22.766 44.8637 24.605C41.2447 25.947 37.2497 25.871 34.2967 27.011C33.0717 27.484 29.6507 29.822 29.7017 31.133C29.7927 33.525 32.1777 38.258 33.3827 40.468C34.0167 41.631 35.9427 43.819 36.2097 44.764C36.6297 46.252 35.0127 46.393 34.0887 45.619C31.1887 43.188 28.2687 35.265 27.2107 31.575C26.5347 29.217 24.8237 19.214 23.8487 18.197C23.1377 17.455 21.7607 17.136 20.7477 17.195C18.5647 18.211 8.71367 19.966 7.71067 21.353C6.84367 22.553 9.76669 21.868 9.90269 21.885C11.8417 22.117 12.7617 22.322 15.0407 22.19C14.9517 21.86 15.0957 21.327 15.0427 20.937C17.3527 21.463 17.7137 22.034 15.0407 22.19ZM42.6607 17.589C42.2207 17.143 36.9627 18.83 36.7757 16.539C36.5927 14.289 43.2077 6.01395 43.4927 2.94095C39.3617 7.40395 34.8277 11.408 33.1557 17.499C32.6657 19.284 31.8837 22.724 31.7737 24.494C31.6847 25.915 34.0277 23.889 35.0367 23.564C36.5177 23.087 39.5577 23.19 40.1567 22.826C40.5577 22.58 43.1687 18.104 42.6607 17.589ZM4.15568 47.298C4.00068 44.682 4.31069 42.097 5.01969 39.579C6.12669 35.649 10.9077 30.481 7.29569 27.213C6.89169 31.515 2.2817 32.767 1.6847 37.082C1.2517 40.217 1.78068 45.012 4.15568 47.298ZM77.3937 49.395C76.1877 49.67 69.8787 51.276 69.8697 52.111C72.7107 54.149 72.4467 52.554 73.8917 51.537C74.9967 50.758 76.8097 50.816 77.3937 49.395ZM12.1107 65.293V57.97C12.1107 57.165 9.93071 54.729 8.96971 54.416L9.36869 62.805C9.87969 64.003 10.9327 64.818 12.1107 65.293ZM22.9907 73.248L19.6467 73.865C20.6607 75.072 22.4377 74.624 22.9907 73.248ZM43.0737 77.845C43.1377 77.063 43.1907 76.006 42.2457 75.755C42.0317 76.336 42.8317 78.363 43.0737 77.845Z" fill="#D31833"/>
<path d="M67.7706 48.133L80.0427 40.942C81.8167 40.581 81.1777 41.583 80.2827 42.445C77.6467 44.984 71.3746 47.443 67.7706 48.133Z" fill="#D31833"/>
</svg>
