<svg width="88" height="57" viewBox="0 0 88 57" fill="none" xmlns="http://www.w3.org/2000/svg">
<path d="M61.298 48.116C58.501 47.514 54.403 39.1521 60.668 40.1671C59.407 42.5711 63.596 45.714 65.686 46.239C68.4 46.921 77.576 46.715 78.977 47.793C79.147 47.924 79.486 48.677 79.316 48.961C78.894 49.664 74.494 51.019 74.488 51.673C75.588 52.745 77.305 54.658 75.875 56.091C68.14 56.063 61.41 53.04 54.599 49.793C54.648 54.509 47.423 50.8921 45.096 49.6711C42.523 48.3201 40.569 45.9 37.49 45.575C36.626 49.41 29.559 57.849 25.398 54.415C24.441 53.625 24.943 52.391 24.475 51.467C22.635 52.671 17.603 56.44 15.458 55.037C14.375 54.329 15.923 52.416 16.243 51.604L20.495 45.608C18.656 46.074 16.925 47.08 15.071 47.504C9.02001 48.887 5.441 47.323 0 44.979C0.024 44.072 14.814 38.374 16.623 37.757C17.643 37.409 21.977 36.604 22.173 36.397C22.294 36.268 21.491 35.303 21.795 34.784C21.839 34.71 22.667 34.4581 23.015 34.1241C24.208 32.9761 25.284 31.346 26.98 30.958L25.937 33.468C29.665 33.954 27.183 36.1491 24.681 35.9861L25.936 37.235C17.866 36.698 10.845 42.146 3.34201 44.36C2.60101 45.153 5.807 45.88 6.16 45.929C13.955 47.005 15.842 43.278 21.829 41.712C23.91 41.168 25.004 41.324 24.982 43.812C24.96 46.361 18.723 50.314 17.989 53.139C18.556 53.698 24.226 49.0871 24.963 49.0161C26.665 48.8541 26.334 52.385 27.178 52.97C28.293 53.743 32.647 50.1411 33.459 49.1541C36.329 45.6631 34.423 42.257 40.927 43.802C43.672 44.454 49.176 47.768 51.345 48.041C52.19 48.147 52.941 47.596 54.076 47.776C56.641 48.183 62.836 51.589 66.008 52.617C68.005 53.264 70.274 54.342 72.387 53.771C71.477 53.008 68.663 52.662 69.835 50.825C70.751 49.39 73.586 49.352 75.138 48.968C75.848 48.792 76.352 49.3831 76.155 48.1201C71.936 47.4941 65.186 48.953 61.298 48.116Z" fill="#D31833"/>
<path d="M71.9691 16.7261C72.4941 17.1911 76.289 13.919 76.829 13.836C77.308 13.762 77.652 14.082 77.78 14.488C78.627 17.186 71.999 22.3521 70.296 24.2581C74.449 23.2161 78.68 21.4031 83.04 21.3121C84.386 21.2841 86.159 21.128 86.821 22.599C88.802 27.001 77.6391 30.82 74.4821 31.379C74.3401 32.589 75.718 32.347 75.993 33.445C76.764 36.526 71.053 38.5731 68.846 39.3431C67.605 39.7761 64.017 40.9401 62.915 40.9861C61.566 41.0431 60.791 39.83 62.037 39.229C63.5 38.524 65.948 38.269 67.59 37.668C68.547 37.318 75.576 34.97 74.059 33.47C72.874 33.304 65.723 34.1331 68.32 31.4861C69.524 30.2581 78.215 27.9361 80.623 26.8481C81.96 26.2441 84.976 25.024 85.353 23.625C85.6 22.707 84.874 23.077 84.35 22.948C82.637 22.526 79.123 23.1581 77.324 23.5491C75.469 23.9521 67.5 26.9281 66.747 26.7731C66.48 26.7181 66.1921 26.346 66.2921 25.922C66.7031 24.186 75.33 18.758 76.153 15.896L63.1801 22.5841C64.2541 20.1301 66.793 19.08 68.626 17.363C73.302 12.984 77.687 7.97905 80.333 2.08305C77.43 4.50905 74.68 7.26805 71.511 9.36805C63.961 14.3721 58.475 15.3421 52.085 23.0021C50.415 25.0041 49.373 27.5621 47.498 29.2951C46.788 29.9521 41.9391 33.1781 41.2031 33.4641C40.0961 33.8951 40.8311 32.076 40.5651 31.811C40.4971 31.743 39.397 31.8181 38.679 31.4021C37.365 30.64 36.325 28.026 34.944 27.182C30.795 24.648 29.922 29.4871 27.614 31.7951C28.248 29.4731 29.797 25.0161 32.399 24.6611C37.451 23.9711 39.764 26.514 41.208 30.957C42.683 29.585 44.8451 28.624 46.2501 27.211C48.0431 25.408 49.2411 22.6081 51.0471 20.7091C57.5961 13.8211 64.801 12.32 72.098 7.44505C73.635 6.41805 80.789 0.00804203 81.384 4.20305e-05C81.846 -0.00695797 82.0131 0.862061 81.9351 1.36906C81.8171 2.13406 80.068 5.60305 79.571 6.54805C77.59 10.323 74.8151 13.5931 71.9691 16.7261Z" fill="#D31833"/>
<path d="M32.21 36.398L29.287 34.936C29.936 33.316 32.812 35.808 32.21 36.398Z" fill="#D31833"/>
</svg>
