<svg width="53" height="96" viewBox="0 0 53 96" fill="none" xmlns="http://www.w3.org/2000/svg">
<path d="M22.6219 50.22C22.1039 49.439 21.6779 48.852 21.3469 47.938C19.3199 42.331 22.4339 28.751 24.4009 22.916C27.0269 15.124 31.4359 7.971 33.5049 0C34.4889 0.552 35.6339 0.0229965 36.4529 0.186996C37.3949 0.375996 38.2109 1.08399 39.1779 1.23199C42.9169 1.80399 50.0639 0.311996 51.0769 5.439L46.0589 6.277C47.5289 6.367 48.9669 6.588 50.4409 6.713C51.0909 6.768 52.1039 6.27 51.9119 7.321C48.4849 9.175 40.7299 7.566 37.2669 6.074C35.9089 5.488 35.5069 4.401 34.5489 3.768C34.1259 3.488 34.2279 3.095 33.7089 3.767C31.2819 11.662 27.7619 19.219 25.8369 27.282C24.7899 31.669 22.3939 43.487 23.0619 47.48C23.5649 50.485 28.4899 53.175 31.2349 53.533C38.0379 54.42 41.2809 50.156 43.4389 44.466C47.6929 33.252 49.0059 20.561 51.0809 8.791C51.6199 8.78 52.2119 8.64599 52.5659 9.20399C53.2489 10.28 49.1099 31.455 48.3609 34.323C47.2319 38.648 44.5919 47.458 41.6709 50.65C39.8569 52.632 37.4129 53.322 35.1779 54.619C39.4219 55.925 45.2689 58.769 46.5059 63.406C47.7089 67.917 41.2379 68.055 38.1809 67.096C34.7439 66.018 32.9069 62.726 30.1589 60.685C30.2349 64.789 31.9829 69.907 34.9719 72.816C37.4499 75.228 39.5489 75.56 42.9189 75.334C43.7869 75.276 45.0609 74.591 45.4359 74.637C47.0919 74.842 46.0499 76.287 44.9479 76.943C37.6709 81.278 30.7439 72.357 29.2009 66.033L28.0669 61.524L24.2929 78.256C30.6979 79.513 42.6579 87.234 33.4759 93.509C26.7499 98.105 10.9759 95.303 6.63392 87.764C3.30592 81.986 4.99292 76.243 12.0699 75.43C14.0639 75.201 18.9499 76.532 20.3639 75.376C21.0719 74.797 23.2269 64.146 23.8739 62.362L18.6569 67.392C14.0719 70.511 9.29992 71.452 4.19292 68.863C2.95092 68.233 -0.432079 65.936 0.0459205 64.289C0.734921 61.916 5.08093 66.698 6.55793 67.335C10.4119 68.998 13.8819 67.901 17.4689 66.204C19.3509 65.314 23.5759 62.049 24.7339 60.389C24.9399 60.093 25.6779 57.892 25.5499 57.759C23.5559 58.501 21.9139 59.87 19.9739 60.758C16.1689 62.499 9.69892 65.395 7.68592 59.934C6.49492 56.704 8.22492 53.887 11.0269 52.23C11.7199 51.82 16.0069 50.225 16.5539 50.225H22.6219V50.22ZM37.2689 2.92799C36.9679 2.24599 36.3499 1.543 35.5949 1.681C35.8969 2.362 36.5139 3.06499 37.2689 2.92799ZM11.4709 54.97C10.4009 56.104 9.27992 59.506 10.9269 60.455C13.8379 62.132 26.1559 56.705 26.2999 55.042C26.5589 52.033 18.5719 53.591 16.9959 54.009C15.3989 54.433 10.8449 57.253 13.4159 53.99C13.1119 53.733 11.7279 54.697 11.4709 54.97ZM25.1279 68.63C25.4669 65.358 27.2739 62.094 27.7979 58.919C27.9159 58.206 28.2429 57.889 27.4319 57.336C26.5629 60.552 25.3299 63.981 24.8179 67.275C24.7489 67.722 24.3719 68.728 25.1279 68.63ZM34.3399 61.941C35.1879 64.466 43.9109 67.575 44.7719 65.023C45.9879 61.415 34.6519 57.65 31.8289 58.175L36.0109 61.733L34.3399 61.941ZM20.5299 76.588C17.4779 77.359 13.4639 76.672 10.7669 78.328C8.18293 79.915 7.60592 81.313 8.81892 84.113L10.0649 81.187C8.71492 88.41 19.7399 90.294 24.9199 89.966C25.7679 89.912 29.7209 88.428 29.3179 90.178C23.9539 93.209 17.3819 91.045 12.3749 88.296C12.2599 88.902 13.4039 89.832 13.8309 90.188C17.7099 93.42 29.0519 94.65 33.2279 91.999C39.2219 88.194 32.3149 83.733 28.4909 81.805C27.3649 81.237 23.3209 79.99 23.0319 79.73C22.6199 79.359 22.6299 78.765 22.6189 78.259L22.2099 78.26C21.8299 80.384 19.0309 78.609 20.5299 76.588Z" fill="#D31833"/>
<path d="M46.0549 28.041C45.8229 28.239 43.6059 27.282 43.1469 26.974C42.1139 26.278 41.1389 24.295 40.6359 24.052C40.0229 23.756 37.9329 25.187 36.7379 25.032C34.6349 24.758 33.1239 21.754 31.9439 21.412C30.7659 21.07 29.8799 22.027 28.9019 21.556C32.1849 17.323 34.8179 22.651 36.2789 22.936C37.4009 23.154 39.3169 21.265 41.4719 21.942C42.0789 22.133 46.0879 26.337 46.2719 26.779C46.3579 26.987 46.1039 28 46.0549 28.041Z" fill="#D31833"/>
<path d="M35.5929 45.2C36.0779 47.01 33.2849 48.128 32.6699 46.659C32.0499 45.179 34.6329 45.466 35.5929 45.2Z" fill="#D31833"/>
<path d="M29.5239 43.252C33.1539 42.468 31.5729 45.705 29.7219 44.986C28.9989 44.705 28.4729 43.479 29.5239 43.252Z" fill="#D31833"/>
<path d="M42.7069 30.135C43.6499 31.063 41.2709 32.382 40.1999 31.805C39.8479 30.607 42.2289 29.664 42.7069 30.135Z" fill="#D31833"/>
<path d="M37.6899 43.104C37.4079 42.852 37.5939 40.622 39.1479 41.018C40.5519 41.375 38.5649 43.886 37.6899 43.104Z" fill="#D31833"/>
<path d="M29.5309 33.485C30.9539 33.102 31.4529 34.856 30.3589 35.151C28.9369 35.534 28.4379 33.779 29.5309 33.485Z" fill="#D31833"/>
<path d="M41.4509 34.736L41.8709 36.825L40.2009 36.826C40.0939 35.822 40.1479 34.633 41.4509 34.736Z" fill="#D31833"/>
<path d="M28.4749 38.085C28.7749 38.338 29.0349 40.163 28.2709 40.168C27.3989 40.173 27.3389 37.128 28.4749 38.085Z" fill="#D31833"/>
<path d="M48.5659 16.325C48.7909 16.545 48.1059 18.617 47.3149 17.995C46.9099 17.157 48.0609 15.832 48.5659 16.325Z" fill="#D31833"/>
<path d="M33.9189 36.831C34.0619 36.985 34.1829 38.397 33.2999 38.08C32.0079 37.617 33.5129 36.393 33.9189 36.831Z" fill="#D31833"/>
<path d="M44.3809 16.744H43.5479V17.995H44.3809V16.744Z" fill="#D31833"/>
</svg>
