<svg width="41" height="128" viewBox="0 0 41 128" fill="none" xmlns="http://www.w3.org/2000/svg">
<path d="M21.4168 10.846C25.3648 10.853 25.9238 14.83 25.4938 18.065C25.2918 19.588 23.9498 22.093 23.9718 23.202C24.0018 24.688 25.4088 25.822 25.1428 28.586C24.9008 31.103 21.3598 37.608 21.4118 38.254C21.4458 38.679 22.2358 38.22 22.7068 38.731C25.6178 41.89 20.9378 47.437 20.9918 49.552C21.0008 49.915 22.4288 49.69 22.8898 50.598C24.4558 53.686 20.0128 60.134 20.5788 60.646C23.1278 60.283 23.2768 62.571 23.0978 64.623C22.7148 69.014 19.0808 73.16 17.9468 77.472C17.2668 80.06 16.9498 82.73 17.6568 85.337C20.4828 83.008 20.9238 79.123 21.4238 75.714C22.3538 75.944 21.9908 76.315 21.9858 76.865C21.9338 81.795 21.6028 81.795 19.6498 85.879C19.3648 86.475 19.4588 87.476 19.2308 87.756C19.1428 87.864 16.9198 88.744 16.6148 88.688C15.2168 88.431 17.1378 87.028 17.2338 86.598C11.8908 85.667 15.4628 90.825 15.1728 92.598C15.1018 93.032 13.9148 93.134 13.8928 93.497C13.8828 93.653 15.4738 95.022 15.1388 95.798C14.7148 96.234 9.75579 91.039 8.02879 92.659C10.1508 93.942 11.6598 97.288 14.0128 98.002C16.3738 98.718 14.8558 96.095 16.6198 95.782C18.0908 95.521 17.6948 97.084 18.9028 97.473C18.7618 93.939 28.1468 88.23 21.4178 87.008C21.0088 84.455 23.7678 85.714 24.9898 86.59C27.5638 88.436 23.8708 92.318 23.5148 94.544C26.6848 91.851 29.1588 87.962 33.9708 88.688C34.8978 89.579 29.4398 94.173 28.5348 94.756C31.6408 95.248 30.8728 96.239 28.6648 97.397C24.4118 99.627 24.3868 96.52 24.1408 96.639C23.3738 97.012 23.0968 99.381 22.0528 99.146C20.7168 98.845 23.1858 92.873 21.4258 94.547C20.5668 95.363 20.1568 101.483 17.8278 99.6C17.0108 98.94 17.3118 97.376 16.4018 97.058C17.2758 100.072 16.2898 98.943 14.7438 99.796C13.6148 100.419 13.3168 102.124 13.4818 103.32C15.2748 103.665 24.1968 104.288 24.9838 103.34C25.4478 102.782 25.4338 100.153 26.6438 100.406C27.6368 100.614 27.4148 103.774 26.7498 104.482C24.9838 106.364 17.0038 105.216 14.6008 105.931C14.0738 106.088 13.1278 107.049 13.4698 107.514C13.8638 108.048 18.9308 108.011 19.9708 107.953C21.1408 107.888 25.5318 106.407 25.1838 108.14C24.9428 109.342 22.5488 108.728 22.2518 110.232C21.9088 111.971 21.8568 114.062 23.9308 113.381L23.5148 115.049C27.8158 114.775 31.8738 114.252 36.1608 115.166C43.5998 116.752 39.2988 119.769 34.9608 121.687C27.0838 125.169 16.3488 125.358 7.93479 124.142C6.77879 123.975 2.77278 122.673 2.36878 122.716C1.66378 122.79 0.560801 124.989 0.922801 125.5C1.1288 125.79 6.51681 126.725 7.38481 126.785C13.2268 127.187 32.2058 126.019 36.9168 123.225C38.5448 122.26 39.7808 121.345 39.4188 119.238C40.1668 119.202 39.8938 121.133 39.8118 121.516C39.0798 124.945 32.8298 126.152 29.8668 126.636C25.9968 127.268 20.9868 127.528 17.0428 127.622C14.4358 127.684 1.55181 127.84 0.259807 125.95C-0.671193 124.587 1.1928 123.357 1.2768 122.72C1.3508 122.158 0.455779 121.712 0.531779 121.174C0.911779 118.501 12.9068 114.57 15.5848 114.389C15.3978 113.549 15.7748 109.437 15.5428 109.208C15.4188 109.085 13.1148 109.281 12.4018 107.937C11.6868 106.59 13.4668 105.915 13.4608 105.634C13.4548 105.351 12.1208 104.812 11.7828 104.393C9.70079 101.808 12.8408 99.352 12.6308 99.152C10.2278 99.906 3.94481 93.39 4.25981 91.833C4.44881 90.902 8.19678 91.115 9.03678 91.233C10.9458 91.5 12.1818 92.711 13.8858 93.285C11.8818 89.993 10.8618 84.299 16.3928 85.338C16.1688 83.248 15.6838 80.948 15.5418 78.87C15.4698 77.808 15.9228 75.936 15.8418 75.475C15.7738 75.086 13.7388 74.264 13.4498 72.176C13.0718 69.436 13.9828 67.396 15.5588 65.259C12.4238 64.232 12.6708 61.307 13.8178 58.695C14.2548 57.7 15.5508 56.738 15.5728 56.603C15.7798 55.342 14.4828 54.443 14.2938 52.918C14.0388 50.859 14.3238 45.925 16.8138 45.168C15.4908 47.826 15.0158 51.184 16.1838 53.95C17.7338 51.086 23.8188 42.808 22.0578 39.709C21.7428 39.154 20.9548 39.556 20.6848 39.839C19.7078 40.862 19.2878 46.254 17.8658 45.999C16.6758 45.786 17.9828 43.498 17.6468 43.071C17.5648 42.966 16.7438 43.972 15.7758 42.646C13.6448 39.726 15.4458 33.911 18.0638 31.774C17.8028 35.297 16.0208 37.794 17.0388 41.388C17.1418 41.752 17.1448 42.575 17.6518 42.032L23.8268 29.374C23.8668 27.886 24.4698 25.252 23.0948 24.245C22.4308 25.983 21.4798 27.53 20.8088 29.282C20.3898 30.377 20.4338 32.715 18.8848 31.587C16.8708 30.121 21.8518 22.363 22.6208 20.633C23.7868 18.01 25.3848 12.21 21.4178 11.689C22.8608 15.156 20.0538 17.785 18.9998 20.778C17.9898 23.648 17.8318 25.844 18.4848 28.842C15.4158 28.029 16.4508 22.966 17.2098 20.662C17.8478 18.724 20.4488 15.644 20.5798 14.369C20.7648 12.574 18.1228 8.7 17.8318 6.689C17.3888 3.628 21.0488 2.206 22.5198 0C27.1828 2.798 21.9658 7.398 21.4168 10.846ZM21.0048 7.5C22.9528 6.357 23.2228 3.717 23.0888 1.644L20.6568 4.891L21.0048 7.5ZM21.8348 50.605L20.5768 52.274L19.7498 51.443C19.3768 52.968 18.4448 54.23 17.9538 55.717C17.5398 56.97 17.3978 59.553 17.0318 60.235C16.2828 61.63 15.3608 58.035 14.7268 58.135C14.2688 60.9 13.6088 62.589 16.6098 63.99C18.5628 59.656 22.1388 55.642 21.8348 50.605ZM16.1058 73.484C16.4998 73.849 16.9468 74.176 17.4308 73.618C17.8528 73.132 21.4538 65.965 21.6388 65.263C22.1978 63.144 21.6788 59.709 19.5538 62.339C18.8568 63.201 17.5168 66.181 17.0318 67.349C16.7568 68.013 15.2548 71.578 15.2218 71.816C15.1708 72.184 15.8188 73.218 16.1058 73.484ZM31.0408 91.188L30.8388 90.363C29.6218 91.282 27.2658 91.994 26.8608 93.705L31.0408 91.188ZM21.0018 109.608L17.2318 109.607C16.7488 110.647 18.5278 118.848 17.0248 118.807C16.0648 118.781 16.0878 115.998 15.9768 115.884C15.6518 115.549 9.90779 117.527 8.99879 117.903C8.45479 118.128 3.0178 120.541 3.8448 121.324C13.0648 123.116 23.3288 123.783 32.3958 120.795C33.2118 120.526 38.2848 118.301 38.5738 117.971C39.2018 117.253 38.4458 117.271 37.9698 117.128C32.3538 115.45 26.3248 116.89 20.5828 116.724L21.0018 109.608Z" fill="#D31833"/>
</svg>
