<svg width="234" height="127" viewBox="0 0 234 127" fill="none" xmlns="http://www.w3.org/2000/svg">
<path d="M4.66202 32.1313C12.86 33.6913 21.057 33.1213 28.046 28.2263C35.149 23.2523 38.525 14.5513 40.097 6.36131C40.248 5.57331 39.043 5.23831 38.892 6.02931C37.453 13.5253 34.662 20.6083 28.968 25.8873C22.489 31.8933 13.256 32.4973 4.99402 30.9263C4.20702 30.7763 3.87102 31.9813 4.66202 32.1313Z" fill="#222321"/>
<path d="M4.99398 96.3003C12.877 94.8013 20.697 95.3753 27.415 100.08C34.242 104.861 37.386 113.35 38.892 121.197C39.043 121.989 40.248 121.653 40.097 120.865C38.588 113.001 35.458 104.718 28.9 99.6593C21.814 94.1923 13.238 93.4643 4.66299 95.0953C3.87099 95.2463 4.20698 96.4503 4.99398 96.3003Z" fill="#222321"/>
<path d="M4 31.6983C4.011 52.8663 4.364 74.0303 4.375 95.1983C4.375 96.0043 5.625 96.0043 5.625 95.1983C5.614 74.0303 5.261 52.8663 5.25 31.6983C5.25 30.8923 4 30.8923 4 31.6983Z" fill="#222321"/>
<path d="M228.791 95.0953C220.593 93.5353 212.396 94.1053 205.407 99.0003C198.304 103.974 194.928 112.675 193.356 120.865C193.205 121.653 194.41 121.989 194.561 121.197C196 113.701 198.791 106.618 204.485 101.339C210.964 95.3333 220.197 94.7293 228.459 96.3003C229.246 96.4503 229.582 95.2463 228.791 95.0953Z" fill="#222321"/>
<path d="M228.459 30.9263C220.576 32.4253 212.756 31.8513 206.038 27.1463C199.211 22.3653 196.067 13.8763 194.561 6.02931C194.41 5.23831 193.205 5.57331 193.356 6.36131C194.865 14.2253 197.995 22.5083 204.553 27.5673C211.639 33.0343 220.215 33.7623 228.79 32.1313C229.582 31.9813 229.246 30.7763 228.459 30.9263Z" fill="#222321"/>
<path d="M229.453 95.5283C229.442 74.3613 229.089 53.1963 229.078 32.0283C229.078 31.2223 227.828 31.2223 227.828 32.0283C227.839 53.1953 228.192 74.3613 228.203 95.5283C228.203 96.3343 229.453 96.3343 229.453 95.5283Z" fill="#222321"/>
<path d="M39.328 122.135C51.989 123.799 64.523 121.923 77.244 122.035C90.886 122.155 104.529 122.298 118.167 122.673C131.316 123.034 144.472 123.471 157.627 123.191C163.889 123.058 170.144 122.719 176.404 122.548C182.214 122.389 188.266 121.216 194.046 121.834C194.847 121.919 194.839 120.668 194.046 120.584C188.811 120.025 183.521 121.182 178.272 121.258C172.019 121.349 165.77 121.692 159.519 121.89C145.742 122.329 131.94 121.809 118.167 121.424C105.149 121.06 92.132 121.013 79.112 120.81C65.787 120.602 52.579 122.628 39.328 120.886C38.53 120.78 38.541 122.031 39.328 122.135Z" fill="#222321"/>
<path d="M194.056 4.58332C181.395 2.91932 168.861 4.79531 156.14 4.68331C142.498 4.56331 128.855 4.42031 115.217 4.04531C102.067 3.68431 88.9121 3.24732 75.7571 3.52732C69.4951 3.66032 63.24 3.99931 56.98 4.17031C51.17 4.32931 45.118 5.50231 39.338 4.88431C38.537 4.79931 38.545 6.05031 39.338 6.13431C44.573 6.69331 49.863 5.53632 55.112 5.46032C61.365 5.36932 67.6141 5.02631 73.8651 4.82831C87.6421 4.39031 101.444 4.90932 115.217 5.29432C128.235 5.65832 141.252 5.70532 154.272 5.90832C167.597 6.11632 180.805 4.09031 194.056 5.83231C194.854 5.93831 194.843 4.68632 194.056 4.58332Z" fill="#222321"/>
<path d="M25.125 37.9523C40.722 40.8563 51.274 31.9123 54.22 16.8153C54.373 16.0283 53.169 15.6923 53.015 16.4833C50.217 30.8223 40.404 39.5293 25.457 36.7473C24.669 36.6003 24.333 37.8043 25.125 37.9523Z" fill="#222321"/>
<path d="M25.457 90.3873C40.403 87.6053 50.217 96.3123 53.015 110.651C53.169 111.442 54.373 111.106 54.22 110.319C51.275 95.2223 40.722 86.2783 25.125 89.1823C24.333 89.3293 24.669 90.5333 25.457 90.3873Z" fill="#222321"/>
<path d="M24.5 37.4883C24.511 54.7843 24.796 72.0793 24.807 89.3763C24.808 90.1823 26.058 90.1823 26.057 89.3763C26.046 72.0803 25.761 54.7853 25.75 37.4883C25.75 36.6823 24.5 36.6823 24.5 37.4883Z" fill="#222321"/>
<path d="M208.328 89.1813C192.731 86.2773 182.179 95.2213 179.233 110.318C179.08 111.105 180.284 111.441 180.438 110.65C183.236 96.3113 193.049 87.6043 207.996 90.3863C208.784 90.5333 209.12 89.3293 208.328 89.1813Z" fill="#222321"/>
<path d="M207.996 36.7473C193.05 39.5293 183.236 30.8223 180.438 16.4833C180.284 15.6923 179.08 16.0283 179.233 16.8153C182.178 31.9123 192.731 40.8563 208.328 37.9523C209.12 37.8043 208.784 36.6003 207.996 36.7473Z" fill="#222321"/>
<path d="M208.953 89.6453C208.942 72.3493 208.657 55.0543 208.646 37.7573C208.645 36.9513 207.395 36.9513 207.396 37.7573C207.407 55.0533 207.692 72.3483 207.703 89.6453C207.703 90.4513 208.953 90.4513 208.953 89.6453Z" fill="#222321"/>
<path d="M53.482 111.5C64.023 112.879 74.48 111.32 85.074 111.426C96.081 111.535 107.088 111.642 118.091 111.945C129.055 112.247 140.023 112.603 150.991 112.341C156.196 112.217 161.395 111.937 166.6 111.812C171.014 111.705 175.504 110.809 179.906 111.253C180.708 111.334 180.7 110.083 179.906 110.003C176.107 109.62 172.338 110.382 168.543 110.531C162.697 110.761 156.84 110.912 150.991 111.09C140.03 111.423 129.047 111.001 118.091 110.694C107.086 110.385 96.081 110.334 85.074 110.175C74.472 110.022 64.033 111.63 53.482 110.249C52.684 110.146 52.695 111.397 53.482 111.5Z" fill="#222321"/>
<path d="M179.915 15.2173C169.374 13.8383 158.917 15.3973 148.322 15.2913C137.316 15.1823 126.309 15.0753 115.306 14.7723C104.341 14.4703 93.374 14.1143 82.406 14.3763C77.201 14.5003 72.001 14.7803 66.796 14.9053C62.382 15.0113 57.892 15.9073 53.491 15.4643C52.689 15.3833 52.697 16.6343 53.491 16.7143C57.29 17.0973 61.059 16.3353 64.853 16.1863C70.699 15.9563 76.557 15.8053 82.406 15.6273C93.367 15.2943 104.349 15.7163 115.306 16.0233C126.31 16.3323 137.315 16.3833 148.322 16.5423C158.923 16.6953 169.364 15.0873 179.915 16.4683C180.713 16.5713 180.702 15.3203 179.915 15.2173Z" fill="#222321"/>
<path d="M21 61.5733C18.143 61.4703 6.89601 57.4903 6.61201 63.0773C6.25601 70.0463 18.066 64.2143 20.916 63.0503C21.652 62.7503 21.33 61.5403 20.584 61.8453C18.624 62.6453 6.898 68.0093 7.913 62.8713C8.597 59.4063 18.706 62.7403 21 62.8223C21.806 62.8523 21.803 61.6023 21 61.5733Z" fill="#222321"/>
<path d="M22.216 56.6563C19.998 54.8503 12.832 44.2463 9.45699 49.4983C6.06499 54.7783 18.292 56.9493 21.257 57.7483C22.036 57.9583 22.366 56.7523 21.589 56.5433C19.501 55.9803 8.577 53.8633 10.308 50.4863C12.468 46.2683 19.607 56.1343 21.331 57.5393C21.952 58.0443 22.841 57.1653 22.216 56.6563Z" fill="#222321"/>
<path d="M21.332 67.4043C19.348 69.0203 13.622 77.7513 10.685 74.9873C7.29297 71.7963 19.746 68.8983 21.59 68.4013C22.367 68.1923 22.037 66.9863 21.258 67.1963C18.369 67.9743 6.61297 69.9813 9.22897 75.0893C12.332 81.1463 20.018 70.0793 22.217 68.2893C22.841 67.7793 21.952 66.9003 21.332 67.4043Z" fill="#222321"/>
<path d="M211.49 62.8232C213.209 62.7622 214.926 62.2842 216.61 61.9772C218.701 61.5952 222.418 60.6782 224.231 62.2642C225.856 63.6862 223.754 65.1572 222.39 65.1712C221.005 65.1852 219.584 64.7262 218.274 64.3242C216.091 63.6562 214.014 62.7062 211.906 61.8452C211.16 61.5402 210.838 62.7502 211.574 63.0502C214.535 64.2602 225.424 69.8772 225.899 63.4902C226.35 57.4262 214.228 61.4742 211.49 61.5722C210.686 61.6022 210.683 62.8522 211.49 62.8232Z" fill="#222321"/>
<path d="M211.158 57.5403C213.142 55.9243 218.868 47.1933 221.805 49.9573C225.197 53.1483 212.744 56.0463 210.9 56.5433C210.123 56.7523 210.453 57.9583 211.232 57.7483C214.121 56.9703 225.878 54.9633 223.261 49.8553C220.158 43.7983 212.472 54.8653 210.273 56.6553C209.648 57.1653 210.538 58.0443 211.158 57.5403Z" fill="#222321"/>
<path d="M210.273 68.2882C212.491 70.0942 219.657 80.6982 223.032 75.4462C226.424 70.1662 214.197 67.9952 211.232 67.1962C210.453 66.9862 210.123 68.1922 210.9 68.4012C212.988 68.9642 223.912 71.0812 222.181 74.4582C220.021 78.6762 212.882 68.8102 211.158 67.4052C210.538 66.9002 209.648 67.7792 210.273 68.2882Z" fill="#222321"/>
<path d="M189.344 28.9963C190.636 27.8583 194.697 21.2983 196.731 23.0983C199.056 25.1563 190.255 27.5833 188.996 27.9773C188.229 28.2163 188.557 29.4233 189.328 29.1823C191.54 28.4923 200.239 26.6403 198.071 22.8003C195.48 18.2113 190.142 26.6323 188.46 28.1133C187.854 28.6453 188.742 29.5263 189.344 28.9963Z" fill="#222321"/>
<path d="M186.679 26.1853C186.955 24.8113 186.889 23.3593 186.97 21.9653C187.045 20.6883 187.035 17.5833 188.513 16.9753C191.315 15.8243 189 20.7553 188.636 21.3813C187.783 22.8473 186.741 24.1883 185.757 25.5663C185.288 26.2243 186.373 26.8473 186.837 26.1973C188.202 24.2833 194.41 16.7413 189.244 15.7143C184.908 14.8523 185.918 23.6393 185.474 25.8533C185.316 26.6403 186.521 26.9753 186.679 26.1853Z" fill="#222321"/>
<path d="M191.105 32.7494C193.33 32.7404 201.798 35.3894 201.826 31.0664C201.859 25.6724 193.188 30.3834 190.966 31.3934C190.233 31.7264 190.869 32.8033 191.597 32.4723C193.076 31.8003 194.532 31.0943 196.059 30.5303C197.02 30.1753 201.777 28.8054 200.438 31.4824C199.782 32.7934 196.514 32.1764 195.416 32.0474C193.991 31.8804 192.546 31.4934 191.106 31.4994C190.299 31.5024 190.298 32.7524 191.105 32.7494Z" fill="#222321"/>
<path d="M44.908 28.1123C43.198 26.6083 38.26 18.5523 35.472 22.5493C32.732 26.4773 41.787 28.4783 44.04 29.1813C44.811 29.4223 45.139 28.2153 44.372 27.9763C42.96 27.5353 35.119 25.6573 36.377 23.4303C37.93 20.6803 42.9 28.0063 44.024 28.9963C44.627 29.5263 45.513 28.6453 44.908 28.1123Z" fill="#222321"/>
<path d="M47.893 25.8533C47.449 23.6393 48.459 14.8523 44.123 15.7143C38.957 16.7413 45.165 24.2833 46.53 26.1973C46.994 26.8473 48.079 26.2243 47.61 25.5663C46.625 24.1853 45.611 22.8343 44.731 21.3813C44.192 20.4923 42.013 16.3013 44.854 16.9753C46.317 17.3223 46.325 20.8943 46.397 21.9653C46.491 23.3613 46.411 24.8083 46.688 26.1853C46.846 26.9753 48.051 26.6403 47.893 25.8533Z" fill="#222321"/>
<path d="M42.262 31.4993C39.482 31.4883 35.817 33.2483 33.217 31.7713C32.091 31.1313 33.0541 29.8293 34.0161 29.7803C34.9811 29.7313 35.993 30.0913 36.897 30.3853C38.581 30.9343 40.163 31.7413 41.771 32.4713C42.498 32.8023 43.135 31.7253 42.402 31.3923C40.082 30.3383 32.113 25.8153 31.54 30.7673C31.004 35.4023 40.139 32.7393 42.263 32.7483C43.069 32.7523 43.068 31.5023 42.262 31.4993Z" fill="#222321"/>
<path d="M44.023 98.6523C42.731 99.7903 38.67 106.35 36.636 104.55C34.311 102.492 43.112 100.065 44.371 99.6713C45.138 99.4323 44.81 98.2253 44.039 98.4663C41.827 99.1563 33.128 101.008 35.296 104.848C37.887 109.437 43.225 101.016 44.907 99.5353C45.513 99.0033 44.627 98.1223 44.023 98.6523Z" fill="#222321"/>
<path d="M46.688 101.463C46.412 102.838 46.478 104.289 46.397 105.683C46.322 106.96 46.332 110.065 44.854 110.673C42.052 111.824 44.367 106.893 44.731 106.267C45.584 104.801 46.626 103.46 47.61 102.082C48.079 101.424 46.994 100.801 46.53 101.451C45.165 103.365 38.957 110.907 44.123 111.934C48.459 112.796 47.449 104.009 47.893 101.795C48.051 101.008 46.846 100.673 46.688 101.463Z" fill="#222321"/>
<path d="M42.262 94.8993C40.037 94.9083 31.569 92.2593 31.541 96.5823C31.508 101.976 40.179 97.2654 42.401 96.2554C43.134 95.9224 42.4981 94.8453 41.7701 95.1763C40.2901 95.8483 38.834 96.5543 37.308 97.1183C36.347 97.4733 31.59 98.8433 32.929 96.1663C33.585 94.8553 36.8531 95.4723 37.9511 95.6013C39.3761 95.7683 40.8211 96.1553 42.2611 96.1493C43.0681 96.1463 43.069 94.8963 42.262 94.8993Z" fill="#222321"/>
<path d="M188.46 99.5363C190.17 101.04 195.108 109.096 197.897 105.099C200.637 101.171 191.581 99.1703 189.329 98.4673C188.558 98.2263 188.23 99.4333 188.997 99.6723C190.409 100.113 198.25 101.991 196.992 104.218C195.439 106.968 190.469 99.6423 189.345 98.6533C188.742 98.1223 187.854 99.0033 188.46 99.5363Z" fill="#222321"/>
<path d="M185.474 101.795C185.918 104.009 184.909 112.796 189.244 111.934C194.41 110.907 188.202 103.365 186.837 101.451C186.373 100.801 185.288 101.424 185.757 102.082C186.742 103.463 187.756 104.814 188.636 106.267C189.175 107.156 191.354 111.347 188.513 110.673C187.05 110.326 187.042 106.754 186.97 105.683C186.876 104.287 186.956 102.84 186.679 101.463C186.521 100.673 185.316 101.008 185.474 101.795Z" fill="#222321"/>
<path d="M191.105 96.1493C193.885 96.1603 197.55 94.4003 200.15 95.8763C201.276 96.5163 200.313 97.8184 199.351 97.8674C198.386 97.9164 197.374 97.5563 196.47 97.2623C194.786 96.7133 193.204 95.9063 191.596 95.1763C190.868 94.8453 190.232 95.9224 190.965 96.2554C193.285 97.3094 201.254 101.832 201.827 96.8804C202.363 92.2454 193.228 94.9083 191.104 94.8993C190.298 94.8963 190.299 96.1463 191.105 96.1493Z" fill="#222321"/>
<path d="M179.915 9.46733C169.374 8.08833 158.917 9.64732 148.322 9.54132C137.316 9.43232 126.309 9.32532 115.306 9.02232C104.341 8.72032 93.374 8.36432 82.406 8.62632C77.201 8.75032 72.001 9.03032 66.796 9.15532C62.382 9.26132 57.892 10.1573 53.491 9.71432C52.689 9.63332 52.697 10.8843 53.491 10.9643C57.29 11.3473 61.059 10.5853 64.853 10.4363C70.699 10.2063 76.557 10.0553 82.406 9.87732C93.367 9.54432 104.349 9.96633 115.306 10.2733C126.31 10.5823 137.315 10.6333 148.322 10.7923C158.923 10.9453 169.364 9.33732 179.915 10.7183C180.713 10.8213 180.702 9.57033 179.915 9.46733Z" fill="#222321"/>
<path d="M179.915 116.073C169.374 114.694 158.917 116.253 148.322 116.147C137.316 116.038 126.309 115.931 115.306 115.628C104.341 115.326 93.374 114.97 82.406 115.231C77.201 115.355 72.001 115.635 66.796 115.76C62.382 115.866 57.892 116.762 53.491 116.319C52.689 116.238 52.697 117.489 53.491 117.569C57.29 117.952 61.059 117.19 64.853 117.041C70.699 116.811 76.557 116.66 82.406 116.482C93.367 116.149 104.349 116.571 115.306 116.879C126.31 117.188 137.315 117.239 148.322 117.398C158.923 117.551 169.364 115.943 179.915 117.324C180.713 117.428 180.702 116.176 179.915 116.073Z" fill="#222321"/>
<path d="M14.625 78.9482C14.643 82.5332 14.858 86.1132 14.875 89.6982C14.879 90.5042 16.129 90.5042 16.125 89.6982C16.108 86.1132 15.893 82.5332 15.875 78.9482C15.871 78.1432 14.621 78.1422 14.625 78.9482Z" fill="#222321"/>
<path d="M14.625 35.9482C14.643 39.5332 14.858 43.1132 14.875 46.6982C14.879 47.5042 16.129 47.5042 16.125 46.6982C16.108 43.1132 15.893 39.5332 15.875 35.9482C15.871 35.1432 14.621 35.1422 14.625 35.9482Z" fill="#222321"/>
<path d="M18.375 78.9482C18.393 82.5332 18.608 86.1132 18.625 89.6982C18.629 90.5042 19.879 90.5042 19.875 89.6982C19.858 86.1132 19.643 82.5332 19.625 78.9482C19.621 78.1432 18.371 78.1422 18.375 78.9482Z" fill="#222321"/>
<path d="M18.375 35.9482C18.393 39.5332 18.608 43.1132 18.625 46.6982C18.629 47.5042 19.879 47.5042 19.875 46.6982C19.858 43.1132 19.643 39.5332 19.625 35.9482C19.621 35.1432 18.371 35.1422 18.375 35.9482Z" fill="#222321"/>
<path d="M212.625 78.9482C212.643 82.5332 212.858 86.1132 212.875 89.6982C212.879 90.5042 214.129 90.5042 214.125 89.6982C214.108 86.1132 213.893 82.5332 213.875 78.9482C213.871 78.1432 212.621 78.1422 212.625 78.9482Z" fill="#222321"/>
<path d="M212.625 35.9482C212.643 39.5332 212.858 43.1132 212.875 46.6982C212.879 47.5042 214.129 47.5042 214.125 46.6982C214.108 43.1132 213.893 39.5332 213.875 35.9482C213.871 35.1432 212.621 35.1422 212.625 35.9482Z" fill="#222321"/>
<path d="M216.125 78.9482C216.143 82.5332 216.358 86.1132 216.375 89.6982C216.379 90.5042 217.629 90.5042 217.625 89.6982C217.608 86.1132 217.393 82.5332 217.375 78.9482C217.371 78.1432 216.121 78.1422 216.125 78.9482Z" fill="#222321"/>
<path d="M216.125 35.9482C216.143 39.5332 216.358 43.1132 216.375 46.6982C216.379 47.5042 217.629 47.5042 217.625 46.6982C217.608 43.1132 217.393 39.5332 217.375 35.9482C217.371 35.1432 216.121 35.1422 216.125 35.9482Z" fill="#222321"/>
<path d="M0.670015 30.2853C9.17302 31.9443 17.693 31.3143 24.892 26.1413C32.279 20.8323 35.731 11.6483 37.341 3.04631C37.488 2.25831 36.284 1.92231 36.136 2.71431C34.654 10.6303 31.768 18.1803 25.793 23.7923C19.104 30.0753 9.58202 30.7543 1.00202 29.0803C0.215016 28.9263 -0.120985 30.1313 0.670015 30.2853Z" fill="#222321"/>
<path d="M1.00202 98.1753C9.48802 96.5193 18.006 97.2663 24.978 102.76C31.608 107.986 34.637 116.535 36.136 124.541C36.284 125.333 37.489 124.997 37.341 124.209C35.691 115.396 32.228 106.893 25.018 101.212C18.1 95.7603 8.97901 95.3493 0.670015 96.9703C-0.120985 97.1253 0.215016 98.3293 1.00202 98.1753Z" fill="#222321"/>
<path d="M5.9968e-07 29.8633C0.0110006 52.2583 0.377008 74.6513 0.389008 97.0453C0.389008 97.8513 1.63901 97.8513 1.63901 97.0453C1.62801 74.6503 1.261 52.2573 1.25 29.8633C1.249 29.0563 -0.0009994 29.0563 5.9968e-07 29.8633Z" fill="#222321"/>
<path d="M232.784 96.9704C224.28 95.3114 215.76 95.9413 208.561 101.114C201.174 106.423 197.722 115.607 196.112 124.209C195.965 124.997 197.169 125.333 197.317 124.541C198.799 116.625 201.685 109.074 207.66 103.463C214.35 97.1793 223.871 96.5013 232.452 98.1753C233.239 98.3293 233.575 97.1254 232.784 96.9704Z" fill="#222321"/>
<path d="M232.452 29.0803C223.966 30.7363 215.448 29.9893 208.477 24.4953C201.846 19.2703 198.817 10.7213 197.318 2.71431C197.17 1.92231 195.965 2.25831 196.113 3.04631C197.763 11.8593 201.226 20.3623 208.436 26.0433C215.354 31.4953 224.476 31.9063 232.785 30.2853C233.575 30.1313 233.239 28.9263 232.452 29.0803Z" fill="#222321"/>
<path d="M233.453 97.3933C233.442 74.9983 233.076 52.6053 233.065 30.2113C233.065 29.4053 231.815 29.4053 231.815 30.2113C231.826 52.6063 232.192 74.9993 232.203 97.3933C232.203 98.2003 233.453 98.2003 233.453 97.3933Z" fill="#222321"/>
<path d="M36.4 125.484C48.975 127.179 61.278 125.338 73.902 125.383C88.13 125.433 102.375 125.638 116.598 126.03C130.757 126.42 144.92 126.932 159.086 126.624C166.216 126.469 173.337 126.058 180.467 125.901C185.884 125.782 191.404 124.571 196.804 125.188C197.604 125.279 197.595 124.028 196.804 123.938C191.998 123.389 187.204 124.454 182.402 124.622C175.285 124.871 168.164 125.088 161.046 125.32C147.524 125.759 133.979 125.279 120.461 124.89C106.876 124.499 93.294 124.445 79.707 124.207C65.348 123.956 50.992 126.201 36.732 124.279C35.944 124.172 35.604 125.377 36.4 125.484Z" fill="#222321"/>
<path d="M196.981 1.23431C184.406 -0.46069 172.104 1.3803 159.48 1.3343C145.251 1.2843 131.007 1.0793 116.784 0.688305C102.625 0.298305 88.4621 -0.21369 74.2961 0.0943105C67.1661 0.24931 60.0451 0.660302 52.9151 0.817302C47.4971 0.936302 41.977 2.1473 36.577 1.5303C35.777 1.4393 35.786 2.6903 36.577 2.7803C41.384 3.3293 46.1781 2.26431 50.9801 2.09631C58.0971 1.84731 65.218 1.63031 72.336 1.39831C85.858 0.959311 99.4031 1.4383 112.921 1.8283C126.506 2.2193 140.088 2.2733 153.675 2.5113C168.034 2.7633 182.389 0.517312 196.649 2.43931C197.437 2.54531 197.777 1.34131 196.981 1.23431Z" fill="#222321"/>
</svg>
