<svg width="191" height="107" viewBox="0 0 191 107" fill="none" xmlns="http://www.w3.org/2000/svg">
<path d="M99.1047 0.018672C78.9597 -0.168328 59.8756 1.07766 41.6956 10.7287C25.6816 19.2307 14.3686 34.3377 13.9446 52.8017C13.5186 71.3607 25.4756 86.3597 40.9126 95.2147C58.2796 105.177 79.4596 107.284 99.1036 106.816C99.9086 106.796 99.9106 105.546 99.1036 105.566C65.1936 106.376 15.5276 95.4137 15.1936 52.8017C15.0426 33.4977 28.6116 18.7117 44.9536 10.4457C62.0216 1.81267 80.4146 1.09366 99.1036 1.26766C99.9116 1.27566 99.9107 0.025672 99.1047 0.018672Z" fill="#222321"/>
<path d="M91.8636 1.26864C110.764 1.09264 128.663 2.08665 146.014 10.4467C162.84 18.5537 175.333 33.6266 175.773 52.8026C176.216 72.0996 163.063 87.1006 146.769 95.5486C130.085 104.198 110.36 106.008 91.8636 105.567C91.0566 105.547 91.0586 106.797 91.8636 106.817C126.504 107.644 176.684 96.1236 177.023 52.8026C177.17 34.2136 164.813 19.3886 149.272 10.7296C131.432 0.789642 111.752 -0.16635 91.8636 0.0196504C91.0576 0.0256504 91.0566 1.27564 91.8636 1.26864Z" fill="#222321"/>
<path d="M98.3896 10.4456C82.4486 10.2976 67.4556 11.2806 52.9766 18.6776C39.8366 25.3896 30.5206 37.5285 29.9506 52.5205C28.6186 87.6005 71.3726 96.9895 98.3896 96.3735C99.1946 96.3545 99.1966 95.1045 98.3896 95.1235C71.0586 95.7465 31.2126 86.9015 31.2006 52.5205C31.1956 37.2595 42.0626 25.6545 54.9226 19.0855C68.5876 12.1055 83.4096 11.5576 98.3896 11.6966C99.1956 11.7026 99.1946 10.4526 98.3896 10.4456Z" fill="#222321"/>
<path d="M92.5797 11.6956C107.258 11.5596 121.108 12.2886 134.711 18.4426C148.637 24.7416 159.172 36.8176 159.769 52.5206C161.075 86.8916 118.925 95.7236 92.5797 95.1236C91.7727 95.1046 91.7747 96.3546 92.5797 96.3736C120.64 97.0136 161.007 87.6096 161.019 52.5206C161.024 37.9646 151.356 26.3316 139.288 19.3796C124.883 11.0826 108.743 10.2956 92.5807 10.4456C91.7737 10.4526 91.7727 11.7026 92.5797 11.6956Z" fill="#222321"/>
<path d="M14.7156 45.7816C10.5326 43.7916 8.54363 37.8856 8.49863 33.5686C8.46863 30.6176 10.0756 28.5266 13.0666 28.2796C15.5546 28.0746 16.8686 30.9376 17.0896 32.9176C17.7736 39.0626 8.78664 35.0986 13.0496 32.5276C13.7386 32.1116 13.1106 31.0306 12.4186 31.4486C8.86163 33.5946 11.4396 39.6746 15.3826 37.8616C19.5186 35.9596 19.2586 28.5906 14.6136 27.3026C3.28964 24.1616 7.35463 43.6596 14.0846 46.8626C14.8086 47.2056 15.4436 46.1286 14.7156 45.7816Z" fill="#222321"/>
<path d="M13.9016 53.3846C11.4526 53.9586 8.67162 53.3346 6.31662 52.6376C4.50462 52.1026 -1.45937 49.1196 1.98063 46.6086C4.15363 45.0206 8.43662 45.6576 10.7946 46.3586C12.0756 46.7396 14.3886 48.8916 11.9056 49.5876C10.9316 49.8606 9.22263 49.7396 8.38363 49.1136C7.73663 48.6306 7.11461 49.7166 7.75261 50.1936C10.0426 51.9006 15.0356 51.0686 14.0036 47.4876C12.9586 43.8576 6.03461 44.2776 3.29761 44.8016C-0.498388 45.5266 -1.03639 49.5296 1.81261 51.8246C4.85461 54.2746 10.4316 55.4816 14.2336 54.5896C15.0176 54.4066 14.6856 53.2006 13.9016 53.3846Z" fill="#222321"/>
<path d="M12.3826 45.1146C9.50462 43.6616 7.19962 41.5426 5.13362 39.0936C4.04162 37.7996 3.18862 36.3466 2.43962 34.8386C1.79762 33.5656 1.42662 32.2186 1.32662 30.7976C1.27162 28.4086 2.09361 27.1016 3.79161 26.8786C3.29961 27.5046 4.17762 28.3966 4.67562 27.7626C5.14562 27.1646 6.01361 25.6066 4.54761 25.4686C2.08761 25.2366 0.717617 27.4996 0.171617 29.5586C-0.670383 32.7316 1.77062 36.5616 3.47962 38.9806C5.59462 41.9756 8.48161 44.5416 11.7526 46.1946C12.4696 46.5566 13.1026 45.4786 12.3826 45.1146Z" fill="#222321"/>
<path d="M15.6156 63.0806C11.7066 65.5656 10.4516 71.6706 10.9336 75.9616C11.2636 78.8936 13.1136 80.7736 16.1126 80.6536C18.6066 80.5536 19.5626 77.5526 19.5396 75.5596C19.4696 69.3776 11.0326 74.4066 15.5766 76.4396C16.3106 76.7676 15.8196 77.9176 15.0816 77.5876C11.2896 75.8926 13.1076 69.5426 17.2426 70.8616C21.5786 72.2456 22.2196 79.5906 17.7656 81.4356C6.90862 85.9336 8.56763 66.0846 14.8576 62.0846C15.5336 61.6566 16.2956 62.6476 15.6156 63.0806Z" fill="#222321"/>
<path d="M13.8806 55.6336C11.3796 55.3616 8.69562 56.3196 6.44262 57.2996C4.71062 58.0516 -0.846385 61.7386 2.87362 63.8126C5.22462 65.1246 9.39762 63.9696 11.6516 62.9866C12.8766 62.4526 14.9096 60.0346 12.3616 59.6456C11.3626 59.4936 9.68062 59.8216 8.92362 60.5446C8.34062 61.1026 7.59062 60.1006 8.16562 59.5496C10.2306 57.5756 15.2876 57.7936 14.7006 61.4736C14.1056 65.2036 7.18262 65.6306 4.40162 65.4456C0.545615 65.1876 -0.476387 61.2796 2.07161 58.6556C4.79161 55.8526 10.1806 53.9746 14.0636 54.3976C14.8646 54.4836 14.6806 55.7206 13.8806 55.6336Z" fill="#222321"/>
<path d="M13.3806 64.0266C10.7016 65.8196 8.67162 68.2047 6.91962 70.8857C5.99362 72.3027 5.32361 73.8497 4.76361 75.4377C4.28261 76.7797 4.07762 78.1606 4.15062 79.5846C4.38662 81.9616 5.36161 83.1586 7.07561 83.1736C6.51161 82.6126 7.27361 81.6206 7.84561 82.1896C8.38461 82.7246 9.43662 84.1666 7.99762 84.4826C5.58462 85.0116 3.94861 82.9336 3.15561 80.9576C1.93261 77.9096 3.88862 73.8096 5.29062 71.2026C7.02462 67.9726 9.57761 65.0717 12.6236 63.0327C13.2916 62.5857 14.0506 63.5776 13.3806 64.0266Z" fill="#222321"/>
<path d="M176.103 45.7816C180.287 43.7916 182.276 37.8856 182.32 33.5686C182.351 30.6176 180.744 28.5266 177.752 28.2796C175.265 28.0746 173.95 30.9376 173.73 32.9176C173.045 39.0626 182.033 35.0986 177.77 32.5276C177.081 32.1116 177.708 31.0306 178.401 31.4486C181.958 33.5946 179.38 39.6746 175.437 37.8616C171.3 35.9596 171.56 28.5906 176.206 27.3026C187.53 24.1616 183.465 43.6596 176.734 46.8626C176.012 47.2056 175.377 46.1286 176.103 45.7816Z" fill="#222321"/>
<path d="M176.918 53.3846C179.367 53.9586 182.148 53.3346 184.504 52.6376C186.315 52.1026 192.279 49.1196 188.84 46.6086C186.666 45.0206 182.384 45.6576 180.026 46.3586C178.746 46.7396 176.432 48.8916 178.915 49.5876C179.889 49.8606 181.598 49.7396 182.437 49.1136C183.083 48.6306 183.705 49.7166 183.068 50.1936C180.777 51.9006 175.785 51.0686 176.816 47.4876C177.861 43.8576 184.785 44.2776 187.522 44.8016C191.318 45.5266 191.856 49.5296 189.007 51.8246C185.966 54.2746 180.388 55.4816 176.585 54.5896C175.802 54.4066 176.135 53.2006 176.918 53.3846Z" fill="#222321"/>
<path d="M178.437 45.1146C181.314 43.6616 183.62 41.5426 185.685 39.0936C186.777 37.7996 187.63 36.3466 188.379 34.8386C189.021 33.5656 189.392 32.2186 189.492 30.7976C189.548 28.4086 188.725 27.1016 187.026 26.8786C187.518 27.5046 186.64 28.3966 186.143 27.7626C185.672 27.1646 184.804 25.6066 186.271 25.4686C188.731 25.2366 190.101 27.4996 190.647 29.5586C191.49 32.7316 189.048 36.5616 187.34 38.9806C185.225 41.9756 182.338 44.5416 179.067 46.1946C178.349 46.5566 177.717 45.4786 178.437 45.1146Z" fill="#222321"/>
<path d="M175.205 63.0806C179.113 65.5656 180.369 71.6706 179.887 75.9616C179.557 78.8936 177.707 80.7736 174.708 80.6536C172.214 80.5536 171.258 77.5526 171.281 75.5596C171.35 69.3776 179.787 74.4066 175.244 76.4396C174.51 76.7676 175 77.9176 175.738 77.5876C179.529 75.8926 177.712 69.5426 173.577 70.8616C169.24 72.2456 168.6 79.5906 173.054 81.4356C183.911 85.9336 182.251 66.0846 175.962 62.0846C175.286 61.6566 174.524 62.6476 175.205 63.0806Z" fill="#222321"/>
<path d="M176.939 55.6336C179.439 55.3616 182.124 56.3196 184.377 57.2996C186.109 58.0516 191.666 61.7386 187.946 63.8126C185.596 65.1246 181.422 63.9696 179.168 62.9866C177.943 62.4526 175.91 60.0346 178.459 59.6456C179.458 59.4936 181.14 59.8216 181.897 60.5446C182.481 61.1026 183.23 60.1006 182.655 59.5496C180.59 57.5756 175.532 57.7936 176.12 61.4736C176.716 65.2036 183.64 65.6306 186.419 65.4456C190.276 65.1876 191.298 61.2796 188.749 58.6556C186.029 55.8526 180.641 53.9746 176.758 54.3976C175.955 54.4836 176.138 55.7206 176.939 55.6336Z" fill="#222321"/>
<path d="M177.439 64.0266C180.117 65.8196 182.148 68.2047 183.9 70.8857C184.826 72.3027 185.496 73.8497 186.055 75.4377C186.537 76.7797 186.742 78.1606 186.667 79.5846C186.431 81.9616 185.456 83.1586 183.743 83.1736C184.307 82.6126 183.544 81.6206 182.973 82.1896C182.434 82.7246 181.381 84.1666 182.821 84.4826C185.234 85.0116 186.87 82.9336 187.663 80.9576C188.886 77.9096 186.93 73.8096 185.528 71.2026C183.794 67.9726 181.241 65.0717 178.196 63.0327C177.528 62.5857 176.769 63.5776 177.439 64.0266Z" fill="#222321"/>
<path d="M98.6576 6.53558C80.8216 6.36958 63.9576 7.51557 47.9076 16.1506C34.0806 23.5896 24.4436 36.7026 23.9476 52.6376C22.7586 90.7976 69.1626 100.976 98.6576 100.289C99.4626 100.27 99.4646 99.0196 98.6576 99.0386C69.2196 99.7236 26.6156 90.5756 25.2026 53.9736C24.5566 37.2516 35.8556 24.0536 49.8496 16.5236C65.0866 8.32658 81.7946 7.62857 98.6576 7.78457C99.4646 7.79257 99.4636 6.54258 98.6576 6.53558Z" fill="#222321"/>
<path d="M92.3106 7.78565C108.901 7.63165 124.56 8.51963 139.788 15.8476C154.435 22.8956 165.252 35.9896 165.77 52.6376C166.938 90.0936 121.118 99.7096 92.3096 99.0386C91.5026 99.0196 91.5046 100.27 92.3096 100.289C122.506 100.992 165.576 91.2906 167.015 53.9736C167.632 37.9756 157.498 24.7886 144.349 16.8836C128.423 7.31064 110.345 6.36865 92.3096 6.53565C91.5056 6.54265 91.5046 7.79265 92.3106 7.78565Z" fill="#222321"/>
<path d="M79.4626 4.58064C79.2036 5.44864 78.6177 5.88964 77.3727 6.02864C75.7837 6.19964 74.1877 6.34667 72.6127 6.62767L70.2447 7.01967L67.8977 7.51765C66.7557 7.74765 65.8817 7.77165 65.3187 6.53965C66.0417 6.11565 66.8247 5.53664 67.7187 5.30964C68.5297 5.11464 69.2927 4.93067 70.0127 4.75667C70.7417 4.62967 71.4237 4.51064 72.0647 4.39964C73.3457 4.18264 74.4647 4.06365 75.4327 4.04365C76.3977 4.00965 77.2057 4.03265 77.8717 4.11265C78.5407 4.21465 79.0656 4.37564 79.4626 4.58064Z" fill="#231F20"/>
<path d="M60.2266 96.9167C62.1226 97.4317 64.0236 97.9467 65.9126 98.4597C66.3796 98.5947 66.6667 99.2747 67.0447 99.7067C66.5407 99.8537 66.0007 100.198 65.5257 100.11C63.6797 99.8117 61.9077 99.1697 60.0967 98.7057C58.5977 98.2707 57.0976 97.8277 55.6016 97.3657C55.1066 97.1947 54.5297 96.9837 54.2067 96.6637C53.8417 96.2977 53.4476 95.6657 53.5886 95.3817C53.7236 95.1107 54.5746 94.9147 54.9966 95.0557C55.8636 95.3657 56.7417 95.6547 57.6227 95.9387L60.2546 96.8247L60.2266 96.9167Z" fill="#231F20"/>
<path d="M25.2476 35.6266C24.3566 35.6746 23.4246 35.3256 24.2356 33.7636L25.3786 31.5436C25.5606 31.1666 25.7736 30.8096 26.0156 30.4696L26.7136 29.4316L28.1336 27.3687L29.7736 25.4807C30.1096 25.0987 30.9046 25.1486 31.4726 25.0146C31.3936 25.5976 31.5316 26.3386 31.2266 26.7076C30.6806 27.3836 30.1006 28.0326 29.5626 28.7206C29.0646 29.4376 28.5636 30.1596 28.0556 30.8916C27.7996 31.2556 27.5426 31.6216 27.2826 31.9906C27.0616 32.3836 26.8386 32.7796 26.6146 33.1796C26.1676 33.9796 25.7126 34.7936 25.2476 35.6266Z" fill="#231F20"/>
<path d="M38.1516 86.5076C39.3046 87.0466 40.4676 87.5126 41.5496 88.1296L45.1506 90.1546L48.8236 92.0516C49.3196 92.2796 49.6176 92.9276 50.0146 93.3866C49.5086 93.6426 49.0106 94.1616 48.4726 94.0876C47.5866 93.9926 46.7076 93.4456 45.8606 93.0136C44.7366 92.4336 43.5856 91.8956 42.5196 91.2056C41.4496 90.5276 40.3266 89.9246 39.3306 89.1356C38.6476 88.6156 38.1916 87.8086 37.6436 87.1436L38.1516 86.5076Z" fill="#231F20"/>
<path d="M98.8256 4.56062C96.0376 4.64562 93.2266 4.73163 90.4156 4.81663L85.7656 4.94862C84.8166 5.00762 83.5836 5.12662 83.6736 4.12962C83.7196 3.61662 84.7076 2.84861 85.4396 2.71061C86.7506 2.49861 88.1806 2.67763 89.5456 2.74663L97.3356 3.29063C98.2656 3.35463 99.0056 3.54462 98.8256 4.56062Z" fill="#231F20"/>
<path d="M35.4417 20.6957C36.4437 19.5287 37.0486 18.6537 37.8766 18.0437C38.9376 17.2297 39.9796 16.3727 41.1256 15.6757C42.2546 14.9537 43.3676 14.1967 44.5606 13.5847C46.0836 12.7517 46.2347 12.8397 46.8727 14.4037C43.3707 16.1847 40.1166 18.4107 37.0206 20.8087C36.8296 20.9627 36.3727 20.7667 35.4417 20.6957Z" fill="#231F20"/>
<path d="M23.0656 40.7167C22.8396 41.7157 22.5696 42.6037 22.4486 43.4797C22.3296 44.3567 22.2076 45.1827 22.0506 46.0017C21.8666 46.7877 21.7526 47.5867 21.6306 48.3867C21.5056 49.1867 21.3846 49.9897 21.3356 50.7907C21.3786 51.9197 21.2026 52.6157 20.2966 52.7397C19.3156 52.8767 19.2146 51.6757 18.9406 50.8377C18.8296 50.5197 19.0706 49.9977 19.2156 49.6177C19.7096 48.4587 19.9176 47.2687 20.1986 46.0857C20.4926 44.9047 20.6506 43.6947 20.7996 42.4817C21.1036 40.9827 21.6756 40.7437 23.0656 40.7167Z" fill="#231F20"/>
<path d="M21.2046 57.9916C21.2546 58.4706 21.3686 58.9416 21.4906 59.4116L21.8376 60.8246L22.1826 62.2346C22.3086 62.7016 22.4956 63.1536 22.6486 63.6116C22.9806 64.5216 23.2666 65.4416 23.6286 66.3286C24.0326 67.1956 24.4356 68.0586 24.8356 68.9156C24.0756 69.8106 23.3776 69.8726 22.9306 68.9546L21.8376 66.6616L20.9966 64.2576C20.3706 62.6646 20.1196 60.9686 19.7286 59.3016C19.5026 58.1366 20.0796 57.5286 21.2046 57.9916Z" fill="#231F20"/>
<path d="M50.8056 11.6886C51.6876 9.81057 53.5866 9.41557 55.2416 8.81857C56.0876 8.51257 56.9266 8.18657 57.8106 7.83557C58.6986 7.49457 59.6506 7.18658 60.6936 6.82458C60.9166 7.30058 61.5056 7.88857 61.2936 8.30957C61.0636 8.76757 60.1396 9.17457 59.4486 9.42157C58.5226 9.73057 57.6076 10.0936 56.6806 10.4106C55.7566 10.7366 54.8406 11.0756 53.9986 11.5556C52.7506 12.2396 51.8186 12.6076 50.8056 11.6886Z" fill="#231F20"/>
<path d="M84.2676 103.107C83.1736 103.104 82.2216 103.102 81.3386 103.099C80.4566 103.059 79.6456 103.022 78.8326 102.986C77.0536 102.906 75.2796 102.699 73.5156 102.441C72.8276 102.348 72.0966 102.099 71.5476 101.739C71.2186 101.529 70.9686 100.953 71.0976 100.688C71.2266 100.425 71.9126 100.14 72.2726 100.216C74.0486 100.555 75.8326 100.876 77.6196 101.182C79.4126 101.438 81.2006 101.772 83.0036 101.977C83.3346 102.02 83.5896 102.486 84.2676 103.107Z" fill="#231F20"/>
<path d="M34.4736 82.1106C34.1846 83.5166 33.2246 83.2736 32.1686 82.6896C31.7466 82.4576 31.3946 81.9746 31.0236 81.5936C30.2156 80.8326 29.5846 79.9126 28.8786 79.0616L27.8556 77.7546C27.5256 77.3126 27.2626 76.8206 26.9726 76.3536C26.7306 75.9466 26.8576 75.3386 26.8216 74.8336C27.3026 74.9646 27.9626 74.9166 28.2156 75.2316C29.1046 76.4556 30.0836 77.6366 31.0696 78.7976C31.3166 79.0806 31.5636 79.3636 31.8136 79.6486C32.0916 79.9066 32.3736 80.1686 32.6616 80.4336C33.2336 80.9656 33.8296 81.5156 34.4736 82.1106Z" fill="#231F20"/>
<path d="M88.6306 103.509C88.2786 102.691 88.2356 101.959 89.7966 101.932C92.2966 101.84 94.7976 101.786 97.2926 101.631C98.3426 101.576 98.9666 102.094 98.8386 102.776C98.7786 103.094 97.8346 103.522 97.2636 103.547C94.4406 103.679 91.6066 103.621 88.6306 103.509Z" fill="#231F20"/>
<path d="M119.988 5.64955C120.445 4.87955 121.132 4.54555 122.33 4.83155C123.86 5.17155 125.391 5.50657 126.902 5.92457C127.659 6.12557 128.423 6.30456 129.176 6.51756L131.43 7.18855C132.529 7.49955 133.276 7.94855 133.073 9.30955C132.29 9.24455 131.354 9.42655 130.523 9.20955C124.49 7.70155 121.244 6.85755 119.988 5.64955Z" fill="#231F20"/>
<path d="M129.654 99.5806C128.726 99.8306 127.807 100.125 126.874 100.354C125.937 100.569 124.999 100.771 124.056 100.928C123.587 101.004 123.055 100.517 122.557 100.275C122.939 99.9346 123.258 99.3896 123.698 99.2706C125.394 98.8106 127.137 98.5036 128.822 97.9866L130.93 97.3436L133 96.5927C133.464 96.4297 134 96.2267 134.433 96.2777C134.924 96.3437 135.609 96.5597 135.694 96.8587C135.782 97.1607 135.285 97.8597 134.872 98.0137C133.181 98.6627 131.442 99.2287 129.682 99.6747L129.654 99.5806Z" fill="#231F20"/>
<path d="M169.5 40.0845C168.845 40.7605 168.015 41.0755 167.464 39.5785C166.856 38.1855 166.183 36.8195 165.541 35.4485L164.408 33.4735C164.019 32.8235 163.71 32.1235 163.249 31.5185C162.989 31.1405 163.256 30.4175 163.267 29.8375C163.791 30.0235 164.54 30.0675 164.825 30.4545C165.373 31.1295 165.739 31.9215 166.191 32.6655C166.613 33.4275 167.076 34.1765 167.464 34.9745C167.817 35.7905 168.173 36.6165 168.535 37.4565C168.711 37.8795 168.911 38.2975 169.07 38.7345C169.213 39.1805 169.355 39.6305 169.5 40.0845Z" fill="#231F20"/>
<path d="M151.19 89.2365C150.328 90.1155 149.48 91.0315 148.475 91.7645C146.217 93.3145 143.802 94.6715 141.292 95.7825C140.796 96.0095 140.115 95.8165 139.526 95.8075C139.667 95.2585 139.593 94.5395 139.969 94.1935C140.58 93.6255 141.469 93.2655 142.27 92.8745C143.333 92.3565 144.331 91.7145 145.368 91.1505C146.414 90.6005 147.393 89.9445 148.405 89.3395C149.08 88.9195 149.975 88.8525 150.742 88.5565L151.19 89.2365Z" fill="#231F20"/>
<path d="M101.568 3.99258C102.899 3.93558 104.239 3.85357 105.584 3.81357C106.927 3.81457 108.277 3.77959 109.626 3.81659C111.12 3.89459 112.624 3.90958 114.115 4.07458C115.033 4.16058 116.235 4.24156 115.974 5.20956C115.838 5.70756 114.805 6.31357 114.123 6.34057C112.898 6.36457 111.608 6.11556 110.348 5.94256C109.134 5.75656 107.914 5.65156 106.692 5.52456C105.47 5.37656 104.246 5.31058 103.016 5.24158C102.138 5.19058 101.431 5.01058 101.568 3.99258Z" fill="#231F20"/>
<path d="M159.499 25.7786C159.218 25.5576 158.96 25.3536 158.719 25.1646C158.459 24.9976 158.217 24.8426 157.989 24.6956C157.535 24.4026 157.143 24.1326 156.79 23.8196C155.897 22.9746 154.92 22.2227 153.958 21.4547C153.473 21.0757 153.015 20.6626 152.513 20.3066L151.009 19.2316C149.717 18.3006 149.725 18.1226 150.79 16.8226C153.942 18.9906 156.918 21.4347 159.578 24.2047C159.74 24.3777 159.568 24.8686 159.499 25.7786Z" fill="#231F20"/>
<path d="M170.757 45.4536C171.068 46.4266 171.234 47.3366 171.386 48.2066C171.542 49.0766 171.695 49.9066 171.785 50.7436C171.81 51.5566 171.776 52.3746 171.747 53.1866C171.713 54.0006 171.722 54.8106 171.657 55.6156C171.612 56.7476 171.381 57.4436 170.471 57.4686C169.486 57.4916 169.468 56.3916 169.248 55.6436C169.159 55.3606 169.378 54.8956 169.495 54.5466C169.823 53.4806 169.968 52.3576 169.996 51.2336C170.005 50.1096 169.736 48.9966 169.508 47.9106C169.227 46.5416 169.533 46.1486 170.757 45.4536Z" fill="#231F20"/>
<path d="M170.274 62.6446C170.086 63.5746 169.854 64.5026 169.642 65.4436C169.53 65.9126 169.433 66.3866 169.306 66.8526L168.845 68.2256C168.525 69.1366 168.252 70.0746 167.888 70.9676C167.491 71.8496 167.095 72.7286 166.703 73.6006C165.556 73.5566 165.085 73.0086 165.451 72.1406L166.385 69.9816L167.132 67.7516C167.7 66.2936 168.011 64.7576 168.412 63.2556C168.705 62.2336 169.295 61.8336 170.274 62.6446Z" fill="#231F20"/>
<path d="M146.545 15.0246C144.539 15.5476 143.275 14.3046 141.753 13.6446C140.994 13.2926 140.231 12.9536 139.416 12.6166C138.586 12.3146 137.713 11.9966 136.751 11.6466C136.878 11.1356 136.791 10.3086 137.201 10.1066C137.648 9.88756 138.598 10.1476 139.275 10.3856C140.182 10.6856 141.044 11.1156 141.909 11.5256C142.77 11.9466 143.66 12.2986 144.529 12.6676C145.818 13.1976 146.711 13.6816 146.545 15.0246Z" fill="#231F20"/>
<path d="M105.928 101.382C107.967 101.085 109.474 100.871 110.978 100.613L115.914 99.8706C116.556 99.7816 117.275 99.8096 117.873 99.9736C118.229 100.077 118.637 100.522 118.608 100.819C118.581 101.117 118.048 101.607 117.693 101.644C114.224 102.052 110.745 102.315 107.267 102.325C106.949 102.329 106.64 101.903 105.928 101.382Z" fill="#231F20"/>
<path d="M156.236 86.6025C154.902 86.1775 155.239 85.2095 155.828 84.2505C156.065 83.8655 156.541 83.5725 156.921 83.2495C158.35 81.7615 159.878 80.3585 161.166 78.7445C161.456 78.4135 162.058 78.3625 162.525 78.1715C162.57 78.6465 162.827 79.2515 162.601 79.5975C162.179 80.2385 161.716 80.8605 161.236 81.4705L159.638 83.1625C159.115 83.7195 158.623 84.3175 158.061 84.8785C157.484 85.4235 156.884 85.9915 156.236 86.6025Z" fill="#231F20"/>
</svg>
