<svg width="39" height="60" viewBox="0 0 39 60" fill="none" xmlns="http://www.w3.org/2000/svg">
<path d="M16.6874 21.104C15.8024 20.088 15.9544 14.703 15.7054 13.096C15.0844 9.09004 13.6014 1.80905 8.43043 1.92405C0.179425 2.10805 2.02643 14.0081 3.71943 19.2231C6.83643 28.8291 16.1344 35.009 16.3804 45.476C20.4744 42.429 23.6954 39.4101 26.7284 35.3181C30.5994 30.0951 37.6904 18.836 36.5784 12.307C34.9204 2.57604 24.6824 13.409 22.9114 17.691C21.4774 21.158 22.6314 24.1681 21.9394 27.1811C21.4554 29.2931 19.6944 29.303 19.1984 27.183C18.6654 24.904 20.2064 14.595 21.1164 12.13C24.2894 3.53904 37.6024 -1.30693 38.7664 10.1211C39.9594 21.8321 32.8034 34.222 24.3444 41.722C23.0764 42.846 16.5294 47.2371 16.2714 47.6671C15.6794 48.6521 15.3454 53.4931 14.1524 55.8021C9.93443 63.9631 8.93943 55.094 11.6424 50.363C13.3284 47.412 15.3074 47.824 14.8074 43.7C14.0504 37.446 9.68143 33.872 6.45443 29.04C2.12143 22.552 -2.11558 12.847 1.16942 5.15705C4.12242 -1.75395 11.7434 -1.60896 15.0784 4.93204C17.2504 9.19204 17.0324 13.4521 17.4724 18.0221C17.5514 18.8441 18.3254 20.5701 18.2644 20.9901C18.1584 21.7121 17.0494 21.52 16.6874 21.104ZM37.0924 9.07105C34.4314 -0.142951 22.6644 8.22206 22.8724 14.9301C26.2394 11.0591 31.8634 3.33405 37.0924 9.07105ZM14.9164 49.2491C11.5234 50.4491 10.5634 55.329 11.1554 58.449C11.8454 57.968 12.6764 56.6921 13.0334 55.9401C14.0694 53.7551 14.3344 51.5421 14.9164 49.2491Z" fill="#D31833"/>
</svg>
