<svg width="43" height="66" viewBox="0 0 43 66" fill="none" xmlns="http://www.w3.org/2000/svg">
<path d="M22.1377 9.46854C21.7627 9.83954 21.1636 9.53455 20.7776 8.93755C18.9736 6.15355 16.2106 2.25554 12.6976 1.54554C12.2636 1.45754 10.0686 1.17854 10.0056 1.93354C15.8676 1.56654 19.3796 7.23855 21.6606 11.8315L25.0647 20.7665C24.8277 15.4595 26.6477 2.10054 33.2587 1.12554C42.0687 -0.173462 42.6816 15.7815 42.2206 21.3895C41.6506 28.3165 37.8756 35.3425 37.2596 42.3745C36.7426 48.2825 37.7417 53.4056 38.0387 59.0636C38.3447 64.9086 37.7346 66.9735 32.2126 63.2155C24.9006 58.2395 23.4616 53.1795 18.7156 46.5825C15.5336 42.1595 11.6926 38.9245 8.57263 34.1275C3.68063 26.6025 -4.50036 12.8635 3.08864 4.85555C4.24064 3.64055 6.95965 1.19854 8.46265 0.602543C13.0416 -1.21346 16.9546 1.32354 19.8036 4.90154C20.2956 5.52054 22.6887 8.92354 22.1377 9.46854ZM40.1297 12.8165C40.2207 10.0395 37.9747 3.09354 34.8667 2.77854C30.9817 2.38554 28.2336 8.23854 27.6096 11.3905C27.5446 11.7205 27.4286 12.8705 27.9946 12.1845C29.0826 7.55254 33.4236 3.66654 37.4276 8.20154L40.1297 12.8165ZM34.2736 60.1045C33.9796 56.7695 33.1607 53.1995 33.0037 49.8715C32.7297 44.0675 33.3537 35.1215 34.9007 29.5545C36.8737 22.4555 41.9526 17.9865 37.4276 10.2945C33.6656 3.90054 29.9916 8.23054 28.0986 13.1275C25.6386 19.4925 25.6906 26.0155 27.3726 32.4855C27.5856 33.3055 29.7196 37.5125 27.7896 37.5005C26.4566 37.4925 23.0276 20.6585 22.2536 18.3545C20.1766 12.1685 14.9686 0.50655 6.77963 4.78255C1.04363 7.77755 5.51065 16.5445 8.89565 19.7855C13.0726 23.7855 14.7766 23.1005 17.4366 29.4485C21.7236 39.6785 22.7746 47.9095 30.5206 56.9565C30.9136 57.4135 33.8236 60.6005 34.2736 60.1045ZM30.9276 60.1026C25.7126 54.1826 21.2886 47.5465 18.4796 40.1225C16.9996 36.2105 16.2126 31.2495 14.2646 27.5985C11.7176 22.8275 5.28564 20.5085 3.65164 14.7765L2.05763 10.7275C2.28263 18.4175 6.82564 26.2805 10.7696 32.7675C13.6806 37.5545 17.2506 41.3145 20.2246 45.9105C23.2666 50.6125 24.9436 55.4696 29.4626 59.2706C29.9316 59.6656 30.1426 60.2856 30.9276 60.1026ZM32.6026 61.3655C34.9456 63.7915 37.0736 65.5885 36.7826 60.7375C36.4806 55.7065 35.2696 50.7726 35.5356 45.6726C36.0476 35.8396 40.9546 26.8905 40.9676 17.0045L39.1977 22.5515C32.7817 34.0105 34.7156 45.9696 35.5226 58.2276C35.7086 61.0576 35.8706 62.4935 32.6026 61.3655Z" fill="#D31833"/>
</svg>
