<svg width="233" height="45" viewBox="0 0 233 45" fill="none" xmlns="http://www.w3.org/2000/svg">
<path d="M195.862 15.5475C195.925 15.6495 197.592 15.5235 196.652 17.3585C188.786 29.0145 182.35 37.9645 167.824 41.2955C158.283 43.4835 157.286 38.7095 149.636 36.4595C138.301 33.1265 137.315 41.2315 129.896 41.8785C127.241 42.1095 127.681 41.1095 125.902 40.5255C123.921 39.8745 117.941 38.1325 116.138 38.1225C115.165 38.1175 112.863 38.5915 112.005 39.0415C109.165 40.5315 108.923 44.0455 104.32 44.7465C102.972 44.9515 97.1673 44.1875 97.5203 42.5565C97.9533 40.5545 106.619 39.0685 108.509 38.0565C109.721 37.4065 110.382 36.0695 111.64 35.3295C119.685 30.5935 126.6 37.3035 135.174 34.1735C140.363 32.2785 142.012 30.4635 148.341 30.1825C158.428 29.7345 163.185 37.5205 173.669 33.3315C179.088 31.1665 179.384 27.7425 182.671 23.9205C184.146 22.2055 185.9 21.2455 187.489 19.7455C184.214 20.0805 177.777 24.4365 174.809 22.6915C173.079 21.6745 173.954 18.0515 173.639 17.6885C172.838 16.7645 164.227 16.6685 162.596 16.8195C153.969 17.6175 146.802 24.1195 138.854 26.5555C132.901 28.3795 120.212 29.8395 114.338 28.2375C104.496 25.5545 91.8293 14.1215 81.6223 18.2855C74.2773 21.2815 73.6193 29.7685 65.6373 32.0125C50.4693 36.2785 43.5843 16.1015 25.3883 24.8235C18.5133 28.1195 14.1273 37.9855 5.77028 35.1155C3.39228 34.2985 0.305283 31.3045 0.012283 28.7305C-0.077717 27.9395 0.339292 27.8525 0.856292 28.3115C1.59829 28.9705 2.55229 31.3955 3.67129 32.3055C10.9803 38.2525 15.4833 29.4535 20.3173 25.6105C24.4993 22.2865 30.4783 20.6135 35.8063 20.9825C47.1573 21.7685 55.4423 36.1555 67.2593 29.8675C72.4453 27.1075 73.6213 18.8245 79.5193 16.8075C79.4753 16.0545 77.7763 15.9265 77.2213 15.9395C68.9973 16.1325 71.3643 25.7575 64.1403 26.7445C52.1373 28.3845 44.5163 12.3215 29.4983 17.2145C24.3433 18.8945 22.7133 23.3055 18.1603 25.1265C13.1923 27.1135 9.49328 25.7425 5.45628 22.6705C5.37828 24.1585 5.6163 25.7785 6.2083 27.1455C6.6983 28.2765 8.46429 29.5715 8.37929 29.9875C8.07229 31.4915 3.09529 29.9775 2.49129 29.0745C1.20629 27.1535 4.1603 26.0615 4.2263 25.7325C4.3893 24.9245 2.52929 20.1555 3.98729 20.1675C7.35729 22.6565 10.2673 25.2265 14.7593 24.6535C21.5333 23.7875 22.8763 15.0405 32.8473 14.2855C45.8713 13.2985 51.5913 24.4675 61.3263 25.1935C69.5913 25.8105 67.0673 15.7185 73.6563 13.6685C77.2833 12.5405 82.3343 14.1865 86.1643 14.4685C88.4343 14.6355 90.9283 14.0935 93.4343 14.4085C100.87 15.3445 104.795 20.8705 111 22.7875C132.691 29.4875 141.496 8.18953 161.351 9.26353C165.446 9.48553 171.66 11.1585 174.305 14.2995C174.891 14.0455 177.619 4.29351 179.099 2.46351C180.747 0.425514 185.693 1.77252 187.905 2.37752C190.803 3.16952 194.36 4.57252 196.265 6.98952C196.818 7.69152 197.625 9.69452 197.777 9.73152C198.159 9.82452 204.631 7.99953 205.365 7.69453C209.85 5.82853 213.657 1.04253 219.186 0.172529C223.052 -0.435471 231.117 0.419532 232.08 5.06953C232.68 7.96853 230.303 18.7505 228.441 21.1455C223.641 27.3195 211.184 20.8485 206.185 17.5775C205.416 17.0745 204.594 15.8325 203.937 15.6405C202.912 15.3415 201.545 15.6655 200.353 15.4575C199.35 15.2835 198.015 14.2945 197.314 14.3095C196.732 14.3205 195.71 15.2985 195.862 15.5475ZM213.438 19.7345C217.562 20.8035 223.828 23.6885 226.493 18.7785C227.361 17.1795 230.088 7.81551 230.149 6.07051C230.269 2.63551 222.565 1.99854 219.973 2.21654C218.106 2.37354 206.724 7.39353 206.079 8.43153C205.928 8.67353 206.699 10.1325 206.754 10.7365C207.095 14.4195 204.718 14.4855 209.558 16.2925C213.489 17.7595 217.563 17.8135 221.496 16.2945C222.359 15.9615 222.894 14.6745 224.312 15.1385C224.292 19.2725 217.937 19.2185 214.893 19.3205C214.391 19.3375 213.337 19.0095 213.438 19.7345ZM195.62 9.51951C193.146 6.54851 184.846 2.04651 181.215 4.04951C179.389 5.05751 175.147 18.2935 176.191 20.9965C177.011 21.7925 184.997 17.7695 186.65 17.6415C186.749 16.8655 185.806 17.3285 185.375 17.4115C183.553 17.7615 181.95 18.4065 179.955 18.0635C180.013 17.7005 179.846 17.0475 179.979 16.8385C180.195 16.5005 186.513 15.1575 187.714 14.7325C190.777 13.6485 193.606 11.9565 196.697 10.9435C196.645 10.2005 195.943 9.90851 195.62 9.51951ZM204.224 9.69551C202.892 9.98251 200.321 9.46852 199.201 10.3175C198.733 10.6725 198.592 11.9185 198.811 12.1845C199.067 12.4955 202.99 12.6425 203.804 13.0475L204.224 9.69551ZM174.094 16.8105C175.414 14.3625 170.153 12.6125 168.22 12.0175C149.149 6.15453 138.729 24.8915 121.597 25.6165C118.406 25.7515 115.31 25.1165 112.166 24.9695C117.259 28.3535 125.688 27.3205 131.567 26.3795C144.417 24.3225 152.803 13.5655 166.35 14.7245C168.882 14.9415 171.72 15.9145 174.094 16.8105ZM141.666 33.5495C143.711 33.4305 145.881 33.5495 147.943 33.5495C152.282 33.5495 157.934 39.4855 162.271 40.1445C167.325 40.9125 179.949 34.8375 183.923 31.4485C186.365 29.3665 188.034 26.3025 190.408 24.1235L195.227 17.6435C192.227 19.3135 188.176 21.2995 185.616 23.5165C180.202 28.2045 181.653 32.9145 172.838 35.4285C163.474 38.0995 161.754 34.4455 153.927 32.1675C149.182 30.7865 143.943 32.0005 139.366 33.5545C139.511 34.7015 141.345 33.5685 141.666 33.5495ZM136.853 35.2275C133.572 36.4755 130.576 37.1455 127.025 36.8905C123.773 36.6575 121.423 35.2855 117.928 35.7625C117.511 35.8195 116.258 35.8795 116.35 36.4745C117.065 36.4475 117.762 36.4955 118.462 36.6655C120.64 37.1955 125.375 38.3765 127.238 39.1885C128.325 39.6625 128.352 40.6955 129.101 40.7055C131.36 40.7375 135.598 37.1045 136.853 35.2275ZM107.14 40.6665C106.312 40.4495 98.7913 42.1225 99.6103 43.1705C102.745 44.4565 105.82 44.1965 107.14 40.6665Z" fill="#D31833"/>
<path d="M224.732 12.6285C224.851 13.7145 224.132 13.8035 223.291 13.9025C218.705 14.4455 213.389 13.5595 208.83 13.0425L209.467 12.1915C214.58 13.1575 219.604 12.6995 224.732 12.6285Z" fill="#D31833"/>
</svg>
