<svg width="86" height="159" viewBox="0 0 86 159" fill="none" xmlns="http://www.w3.org/2000/svg">
<path d="M61.8604 33.7592C62.9494 36.7192 64.0624 39.6472 64.7184 42.7502C66.1694 49.6152 67.2054 57.5102 66.3154 64.4712C65.3694 71.8702 62.8634 76.5512 63.3604 84.6142C63.6714 89.6662 65.9274 94.2942 65.4214 99.2832C65.1644 101.815 63.2984 108.441 61.9814 110.545C60.9004 112.272 59.0924 113.724 57.9494 115.515C55.3714 119.557 52.9914 130.529 53.1424 135.338C53.1574 135.833 53.9194 138.167 52.7094 137.876C52.5344 137.834 51.0804 135.568 50.9064 135.175C50.0734 133.294 50.1824 131.48 50.0064 129.476C49.0084 130.856 48.3584 133.634 48.3294 135.327C48.3244 135.62 49.0874 139.161 48.0594 138.174C47.6794 137.809 46.6764 133.728 46.5564 132.922C45.9894 129.082 46.3604 122.175 47.7934 118.561C49.4484 114.39 53.7594 112.034 55.2664 107.731C58.5654 98.3162 53.4694 90.3142 55.3944 80.5552C58.4474 65.0742 64.8574 57.1272 55.9064 41.0582C51.5484 33.2332 43.3054 27.5062 42.9504 17.8562C41.3564 19.9422 40.3324 20.1392 37.8504 19.0592C38.5074 20.0782 37.6464 19.4192 36.9664 19.8202C28.8274 24.6222 30.7244 46.7582 30.3524 55.2352C30.0444 62.2672 29.7004 72.4052 27.7284 78.9952C26.4084 83.4062 23.9174 87.7522 22.5454 92.1152C19.4204 102.048 24.5304 112.548 22.4094 122.884C20.2934 133.2 16.4954 136.681 18.4424 148.433C19.0224 151.934 20.5624 155.429 20.2994 158.877C18.4174 157.185 16.8444 155.323 15.4974 153.183C15.2384 153.398 15.0324 153.772 14.7264 153.908C8.4194 156.692 11.7254 153.239 12.0444 150.025C12.2704 147.739 11.8864 145.16 12.0524 142.832C12.5064 136.433 14.4054 130.273 14.3214 123.624C14.2944 121.503 13.7074 119.101 13.8544 117.026C13.9844 115.205 14.8974 113.474 15.0594 111.632C15.6804 104.546 12.1334 98.7432 12.6374 92.1072C13.0144 87.1492 16.7784 82.1132 18.7014 77.4682C21.5504 70.5872 23.1064 60.8832 23.4464 53.4092C23.5804 50.4782 22.8254 47.5142 22.8214 44.7102C22.8154 41.1282 23.5144 34.7902 24.5014 31.3602C25.0584 29.4262 26.0934 27.8272 26.7464 25.9572C23.8294 28.2382 20.2744 28.5442 17.0404 29.9002C14.0884 31.1382 8.2494 36.0322 5.4294 35.1242C2.6724 34.2362 3.1884 31.0422 2.6034 28.9512C1.7304 25.8252 -0.334602 23.4372 0.0463976 19.8052C0.0913976 19.3742 0.599399 16.9432 0.711399 16.5792C1.1214 15.2572 3.6314 13.6082 4.3824 12.4422C5.4704 10.7522 4.8404 10.2362 6.8484 8.60718C14.7204 2.21618 25.7884 2.87118 35.3134 2.84118C36.4564 2.83718 38.4364 2.54618 38.9104 2.57418C39.3374 2.59918 39.6014 3.07718 40.0434 3.08518C41.1864 3.10718 44.0664 1.90818 45.5394 1.69118C48.6044 1.23918 50.8504 2.17618 53.6034 1.95118C55.9184 1.76218 58.6944 0.531176 61.1414 0.190176C65.2284 -0.378824 77.0954 0.409178 81.0724 1.49218C83.2374 2.08218 84.6244 3.44918 84.9334 5.73218C85.4674 9.66418 83.0934 22.4922 82.1124 26.8622C81.3064 30.4522 79.7484 35.3552 76.5384 37.4902C72.2864 40.3172 65.8774 35.4192 61.8604 33.7592ZM81.5544 3.56418C79.3174 2.16518 67.0334 0.86018 64.1114 1.05718C59.7774 1.34918 54.7624 4.11318 50.9364 3.72118C50.0454 3.63018 49.2214 3.22418 48.2164 3.14318C46.4274 3.00018 44.7184 3.38318 42.9544 3.45718C43.9584 4.04418 44.2434 5.24718 44.8964 5.86218C45.5124 6.44118 46.8604 6.49018 46.9964 7.30618C47.2664 8.92518 45.0214 14.8842 43.8554 16.3522C49.1024 16.6232 52.8334 20.4912 57.4554 22.4082C60.6624 23.7382 63.7444 24.1652 66.9644 25.8012C71.1894 27.9472 74.4184 30.9212 77.6104 34.3532C79.7804 34.3052 81.1054 18.1492 81.4034 15.9482C81.8174 12.8912 83.4584 8.03318 82.7994 5.16718C82.7074 4.76818 81.8474 3.74718 81.5544 3.56418ZM34.2514 4.05718C25.8444 4.79718 17.8814 4.25218 10.2424 8.39818C7.5694 9.84918 3.8794 13.5992 1.9954 16.0542C1.7644 16.3552 1.4134 16.4352 1.5484 16.9552C7.4474 17.3122 11.4714 12.0622 16.5544 9.91118C20.9054 8.07018 25.9884 6.99718 30.5074 5.56118L34.2514 4.05718ZM39.3044 11.8082C39.5084 11.6782 40.2314 8.94018 40.1894 8.47418C40.1754 8.31818 39.3774 5.67118 39.2914 5.46818C39.1374 5.10518 39.0504 4.95318 38.6174 4.95218C38.0734 4.95118 30.6154 8.14318 29.0814 8.63618C24.7554 10.0262 19.2324 10.8112 15.1914 12.4492C10.8714 14.1992 6.7894 18.8962 1.5404 17.9892C-0.039603 22.0382 3.5384 25.8882 4.1134 29.5452C4.4724 31.8292 3.4724 34.6252 7.0264 33.9872C10.6684 31.5092 14.3134 27.3142 18.6444 26.1032C20.2674 25.6492 21.9554 25.6252 23.6134 25.0712C27.3084 23.8352 31.7094 20.0932 34.5584 17.4132C34.9764 17.0192 37.9264 14.0592 37.5514 13.6582C33.2254 16.3482 29.1754 19.5182 24.6584 21.9162C24.1644 22.1792 19.1134 24.8912 21.0304 22.4892C21.4544 21.9582 27.0484 19.0342 28.2264 18.2842C30.9964 16.5202 34.8334 13.3362 37.6344 12.0892C38.2254 11.8232 39.0684 11.9572 39.3044 11.8082ZM42.8944 5.31718C42.1474 4.87818 41.0164 5.73618 40.2534 5.85818C41.0094 7.02718 41.6394 8.32018 41.4564 9.75518C42.2614 9.70718 43.1514 7.46718 43.2854 7.38918C43.6394 7.18318 44.4344 7.51518 44.4464 7.80218C44.4604 8.13918 41.7454 12.0052 41.2794 12.4282C40.3804 13.2432 39.4764 13.0442 39.3994 13.1142C39.1244 13.3662 37.3004 17.6022 37.5514 17.8542C38.7664 17.8882 39.4234 18.4972 40.5474 17.6972C40.8274 17.4982 44.3544 12.6632 44.6074 12.1582C45.0174 11.3412 45.8804 8.65118 45.6114 7.85418C45.4534 7.38718 44.3424 7.04018 43.8434 6.61618C43.4314 6.26618 42.9644 5.35818 42.8944 5.31718ZM36.3504 18.7552L36.8044 16.3572C35.6274 17.9892 32.2874 20.1802 31.4874 21.8422C30.7534 23.3672 29.9624 27.6182 29.5454 29.5012C29.2164 30.9892 28.8454 32.5212 28.8494 34.0572L28.5894 32.7462L30.6514 22.9582C29.9344 22.1822 27.1164 27.2782 26.8934 27.7492C22.8744 36.2422 24.7904 44.6552 24.3484 53.4092C23.9724 60.8672 22.6924 70.6502 19.9914 77.5562C18.4104 81.5992 14.3074 87.7202 13.8814 91.5492C13.1684 97.9562 16.4934 103.812 16.2614 110.132C16.1864 112.166 15.2434 114.207 15.0524 116.124C14.7084 119.579 15.5484 123.548 15.3474 127.22C15.0534 132.587 13.2854 138.121 12.9534 143.43C12.7324 146.963 13.7994 150.274 12.3524 153.777C14.2534 153.231 14.4224 153.199 15.2004 151.383C16.8224 153.032 17.4134 155.344 19.4024 156.776L16.8894 145.187C15.4794 136.919 20.3244 129.839 21.8124 122.283C23.5444 113.486 20.0754 105.63 20.4564 96.9202C20.7514 90.1582 25.0834 83.6622 26.9024 77.2642C28.9524 70.0532 29.0254 60.0852 29.1554 52.5142C29.2964 44.2492 28.1224 30.3162 32.5134 23.1652C33.5484 21.4792 35.2744 19.5202 37.2524 19.0512L36.3504 18.7552ZM43.8494 18.1572C42.9084 17.2512 43.6034 19.8972 43.7024 20.2582C46.1194 29.1062 54.3504 34.7042 58.2134 43.2532C65.8114 60.0652 57.4294 69.8142 56.4594 85.5202C55.9614 93.5752 59.9884 102.966 55.7984 110.663C54.0854 113.81 50.8924 115.639 49.2984 119.165C47.5764 122.974 47.2844 128.187 47.4554 132.327C47.4704 132.692 47.2284 133.443 47.7524 133.373C47.8664 131.559 48.6354 127.861 49.5974 126.367C50.1734 125.472 51.2884 125.291 51.8264 126.174C52.1034 126.628 50.9074 131.004 51.3594 132.023L52.2534 134.874C52.3324 133.248 52.1364 131.585 52.2924 129.961C52.5574 127.22 54.0124 120.487 54.9444 117.911C56.3224 114.105 59.6654 111.936 61.2134 108.578C62.2034 106.431 63.4534 101.904 63.8754 99.5402C64.7694 94.5292 62.4144 89.0452 62.1454 83.7302C61.6134 73.2172 65.9514 64.5942 65.4554 54.3162C65.2124 49.2912 63.2774 36.0042 59.6054 32.5612C57.0204 30.1372 52.6034 28.1562 49.8514 25.5122C48.3124 24.0322 45.7164 21.0412 44.3154 19.3422C44.0104 18.9712 43.8954 18.2012 43.8494 18.1572ZM47.3434 20.0712C46.8954 19.7372 45.6504 19.0062 45.0564 19.2052C48.6364 22.0332 51.3024 25.4262 55.5534 27.4582C55.8614 27.1432 54.6294 26.0392 54.3594 25.8042C52.7444 24.3942 50.5524 23.1562 48.8084 21.7542C48.3864 21.4152 47.8334 20.4362 47.3434 20.0712ZM69.6584 29.5552C67.4604 27.6022 64.1804 26.2102 61.2584 25.9612L68.1494 29.4172L69.6584 29.5552ZM76.2624 34.6582C76.2344 37.7592 73.1254 36.6432 71.1704 35.9972C66.4384 34.4342 63.2384 30.1132 58.5564 28.3612C60.3614 31.1452 64.1534 33.1152 67.0564 34.7112C69.2684 35.9272 72.7894 38.4152 75.2694 37.1192C76.1064 36.6802 78.2294 34.9162 76.2624 34.6582ZM68.1564 31.0572C68.6924 30.5272 65.9274 29.2032 65.4574 29.2612L68.1564 31.0572Z" fill="#D31833"/>
<path d="M64.5554 16.3542C64.0794 16.9842 61.1324 15.8022 60.4524 15.5102C57.4924 14.2402 55.3664 11.9752 52.3334 10.7272C51.2504 10.2812 49.1094 10.3122 48.9564 9.15617C53.5414 8.82417 56.4834 12.0032 60.0444 13.8182C60.6634 14.1342 65.2324 15.4592 64.5554 16.3542Z" fill="#D31833"/>
<path d="M59.4564 16.6602C59.5554 17.3862 59.4054 17.3332 58.7694 17.1972C57.0004 16.8202 53.6614 15.5302 51.7604 14.8872C51.2964 14.7302 50.9014 15.1532 51.0574 14.2572C54.0444 14.3122 56.6594 15.8742 59.4564 16.6602Z" fill="#D31833"/>
<path d="M62.1574 7.65618L61.7364 8.23218L48.9564 6.45719C53.4024 6.33319 57.7614 7.23218 62.1574 7.65618Z" fill="#D31833"/>
</svg>
