<svg width="94" height="56" viewBox="0 0 94 56" fill="none" xmlns="http://www.w3.org/2000/svg">
<path d="M41.8883 32.6143L49.5333 28.8853C53.6943 26.8633 62.3153 25.4583 61.1363 31.1743C60.0423 36.4803 48.8573 38.4483 43.6753 35.7863C43.1103 35.4963 43.2673 34.9253 42.6673 34.9463L45.4153 49.4743C47.6583 49.7073 53.0053 49.7573 51.3943 52.4073C50.5103 53.8613 41.5643 54.9853 39.2493 55.2353C37.7993 55.3923 35.7683 55.6303 34.3353 55.6133C23.6793 55.4873 34.9233 46.4893 40.3293 50.0813L38.3893 36.4003C34.3333 37.1623 30.1443 41.0983 28.4053 43.9073C25.9333 47.9003 28.3113 50.0763 21.4023 51.7583C17.8353 52.6273 12.5683 53.0443 9.44432 51.2533C8.88332 50.9313 8.55933 50.2133 8.40433 50.1443C7.47433 49.7343 4.61333 50.4633 1.90533 49.0443C1.28533 48.7193 -1.32768 46.4583 0.854324 46.9143C1.85932 47.1243 3.22433 48.1873 4.23733 48.4613C4.87833 48.6343 6.87033 48.9223 7.53833 48.9373C8.00833 48.9473 8.56133 48.0543 9.64733 47.8813C12.3733 47.4473 13.0983 49.1143 10.4283 49.6433C12.6553 51.5073 21.0203 50.6923 22.3863 48.7113C23.0043 47.8143 23.0933 46.1003 23.6173 44.9763C24.7683 42.5063 27.1563 40.6083 29.4583 38.7313C25.2013 39.3863 16.7993 39.4023 18.2783 34.5673C19.3843 30.9523 32.4033 32.3343 36.0563 33.1993C35.5113 30.9803 40.8573 32.5263 41.1093 32.3223L41.1133 30.5753C38.0813 30.4243 32.6943 30.7773 31.5843 28.2563C29.0963 22.6023 30.5113 13.1103 30.6383 7.12929C30.6633 5.94729 29.3883 2.57829 30.8903 1.73829C33.2093 0.441285 41.8443 1.09429 44.8513 0.02129C45.4283 -0.05271 45.9323 0.057283 46.1033 0.492283C45.9173 7.44728 46.5453 14.4703 46.1773 21.4203C46.1443 22.0403 45.8243 22.5863 45.7773 23.1583C45.5403 26.0103 46.6783 27.6983 43.4193 29.8333C41.7283 30.9383 41.2323 30.0103 41.8883 32.6143ZM32.1763 3.21329V19.5153C32.9433 19.3583 32.5863 18.7483 33.6293 18.4213C34.4643 18.1593 43.3393 17.3143 43.7753 17.5163C43.9113 17.7383 44.0643 17.9963 44.0813 18.2423C44.1483 19.2033 43.4603 24.4943 43.0023 25.1553C41.2763 27.6473 35.4363 27.2193 32.9563 25.6293C32.9733 26.6123 33.1723 28.5403 34.3833 29.0683C34.9593 29.3193 39.1083 29.9923 39.7893 29.9823C41.0343 29.9643 40.4523 28.7283 41.3053 28.2503L41.5013 29.7043C45.4193 28.7883 45.0953 25.7113 45.0123 23.1403C44.9253 20.4623 44.2903 17.3973 44.2003 14.7243C44.0503 10.2153 44.3453 5.68229 44.2163 1.17429C42.4583 0.72429 41.8093 1.84428 40.9333 2.07228C39.6033 2.42028 32.4143 2.93229 32.1763 3.21329ZM36.0583 24.7543L34.8983 21.8463C34.6093 22.1403 34.9413 25.6623 36.0583 24.7543ZM44.9963 34.3583C48.8403 36.1323 61.1103 34.5203 59.1973 29.9823C58.1173 27.4203 53.9273 29.1673 51.6083 29.8593C50.1143 30.3053 43.4223 32.6593 42.6683 33.3473C41.6543 34.2733 42.1653 35.3533 43.6593 33.9903C43.7733 33.8873 43.5513 33.5683 43.6533 33.4843C43.9273 33.2563 50.9213 31.8193 51.4823 31.7923C53.2263 31.7063 51.8663 33.3773 50.5243 33.4123L44.9963 34.3583ZM26.7203 33.2043C26.3673 33.0053 18.7733 33.5583 20.3393 36.1043C22.0103 38.8213 31.1883 36.9603 33.3413 35.2383C31.8653 35.0853 28.5153 35.0003 27.3923 34.3833C26.7743 34.0443 26.8653 33.2863 26.7203 33.2043ZM33.7273 33.4923H31.7893V33.7773H33.7273V33.4923ZM41.8843 35.2353L39.5523 35.5293L42.2603 49.0203L43.8263 49.2063L41.8843 35.2353ZM42.2053 52.0583C41.0613 52.5923 39.9943 51.2103 38.8933 51.0173C36.3393 50.5693 33.4553 51.7053 32.5663 53.5733C38.2133 53.4083 43.7353 52.6313 49.2633 51.8253C49.3333 51.4003 48.2463 51.3033 47.8713 51.2733C46.8903 51.1943 43.2643 51.1023 42.6533 51.3993C42.3973 51.5253 42.3603 51.9863 42.2053 52.0583Z" fill="#D31833"/>
<path d="M62.8433 42.7993C65.9423 44.6923 71.3163 43.2343 75.0613 43.0743C78.9833 42.9073 87.1673 43.0363 91.0103 43.3723C92.9863 43.5443 94.2523 44.6383 91.7973 44.8473C86.4963 45.2983 81.0893 43.9883 75.8393 44.2403C70.9873 44.4733 68.4503 45.5463 63.1413 44.7553C62.3143 44.6323 61.4563 44.0793 60.6123 44.0193C59.5823 43.9453 58.4843 44.5413 57.2093 44.5673C50.2333 44.7133 48.9853 40.6223 45.5253 37.2893C44.9013 36.6883 41.3343 34.6233 43.6083 34.6413C46.5243 34.6643 52.5563 41.9603 55.3033 42.2093C55.9723 42.2703 58.4673 41.9963 58.7873 41.6493C59.1283 41.2793 58.9003 40.0083 59.1393 39.2933C59.8193 37.2593 62.3713 36.2123 64.9323 37.3003C67.4203 38.3553 65.1553 42.3033 62.8433 42.7993ZM63.5853 38.1613C62.1913 37.4073 59.8263 39.9353 60.5133 41.0473C60.8623 41.3553 65.2703 39.0733 63.5853 38.1613Z" fill="#D31833"/>
</svg>
